<?xml version="1.0" encoding="utf-8"?>
<svg xmlns="http://www.w3.org/2000/svg" width="118" height="118" viewbox="0 0 118 118"><defs><style>.cls-1{fill:hsl(210 30% 96%);}</style></defs><g id="Calque_2" data-name="Calque 2"><g id="Calque_2-2" data-name="Calque 2"><path class="cls-1" d="M88.53,57a4.82,4.82,0,0,0-3.48.28l-1.25.61a7.81,7.81,0,0,1-5.6.48l-3-.88a4.87,4.87,0,0,0-3.13.15L69,58.86a7.89,7.89,0,0,1-4.92.29l-3.86-1a4.89,4.89,0,0,0-3.07.19l-3,1.22a7.92,7.92,0,0,1-4.88.33L45.1,58.78A4.92,4.92,0,0,0,42,59l-3.3,1.45a7.78,7.78,0,0,1-2.77.64l-4.09.18L22.43,50.65l-.79.26L33.12,64l2.65-.12a4.8,4.8,0,0,0,1.71-.4L40.78,62a7.86,7.86,0,0,1,5.06-.41L50,62.65a4.85,4.85,0,0,0,3-.21l3-1.21a7.87,7.87,0,0,1,5-.31l3.86,1a4.83,4.83,0,0,0,3-.18L71,60.55A7.9,7.9,0,0,1,76,60.31l3,.87a4.8,4.8,0,0,0,3.45-.29l1.25-.61a7.76,7.76,0,0,1,5.66-.45L93.24,61a5.1,5.1,0,0,0,1.6.2l.32,0-2.8-3Z"/><path class="cls-1" d="M35.77,58.12a4.79,4.79,0,0,0,1.71-.39l3.3-1.44a7.79,7.79,0,0,1,5.06-.41L50,56.94a4.81,4.81,0,0,0,3-.2l3-1.22a7.87,7.87,0,0,1,5-.31l3.86,1a4.77,4.77,0,0,0,3-.18L71,54.85A7.9,7.9,0,0,1,76,54.6l3,.88a4.79,4.79,0,0,0,3.45-.3l1.25-.6a7.81,7.81,0,0,1,5.66-.46l3.84,1.15a4.54,4.54,0,0,0,1.6.2h.32l-12-13-1.58.09a7.25,7.25,0,0,1-3-.49l-3.12-1.2a4.38,4.38,0,0,0-3.51.16l-2.17,1.07a7.39,7.39,0,0,1-5.72.35l-2.72-1a4.37,4.37,0,0,0-3.2.11l-3.44,1.49a7.32,7.32,0,0,1-5.59.12l-2.24-.86a4.4,4.4,0,0,0-3.29,0L39.83,44a7.37,7.37,0,0,1-5.23.21L31,43a4.38,4.38,0,0,0-2.77,0L21.64,45.2l11.48,13ZM62,47.23c2.8-2.2,11.27-3.56,12.76-2.06l.27.28,0,.38A3.76,3.76,0,0,1,74,48.73c-3,3.12-11.1,3.21-12,3.21h-.56l-.29-.48A3,3,0,0,1,62,47.23Zm-18.3-2.88c2.53-1.06,9.11,2.2,11.1,4.57,1.15,1.38.81,2.38.51,2.85L55,52.3l-.62-.07C52.47,52,43,50.68,42.55,46.39A1.91,1.91,0,0,1,43.72,44.35Z"/><path class="cls-1" d="M53.13,50a12.68,12.68,0,0,0-3.36-2.32c-2.67-1.38-4.69-1.72-5.22-1.54C44.81,48,49.38,49.4,53.13,50Z"/><path class="cls-1" d="M73,46.56a6.15,6.15,0,0,0-.81-.05c-2.56,0-7.79.93-9.3,2.63a.93.93,0,0,0-.31.79c2.64-.08,8.08-.64,9.93-2.58A2,2,0,0,0,73,46.56Z"/><path class="cls-1" d="M59,0a59,59,0,1,0,59,59A59,59,0,0,0,59,0ZM95.5,77.55a7.41,7.41,0,0,1-2.6-.32l-3.84-1.15a4.77,4.77,0,0,0-3.48.28L84.32,77a7.78,7.78,0,0,1-5.59.47l-3-.87a4.87,4.87,0,0,0-3.13.15L69.52,78a7.89,7.89,0,0,1-4.92.29l-3.86-1a4.82,4.82,0,0,0-3.07.19l-3,1.21a7.84,7.84,0,0,1-4.88.34l-4.17-1.07a4.78,4.78,0,0,0-3.12.25l-3.3,1.44a7.79,7.79,0,0,1-2.77.65l-4.09.18L16.93,62.88l3.63-1.22-4.84-5.5,5.06-1.68-4.38-5,3.88-1.29L16.4,43.79l10.88-3.63a7.39,7.39,0,0,1,4.67,0l3.6,1.21a4.42,4.42,0,0,0,3.1-.13l3.71-1.58a7.33,7.33,0,0,1,5.54-.09l2.24.86a4.32,4.32,0,0,0,3.31-.07l3.44-1.49a7.31,7.31,0,0,1,5.4-.19l2.72,1a4.39,4.39,0,0,0,3.39-.2l2.17-1.08a7.42,7.42,0,0,1,5.93-.27l3.11,1.21a4.3,4.3,0,0,0,1.81.28l3-.16,17.34,18.73-5.07.23,5.07,5.48-6.58.29,5.91,6.38-4.82.21,6,6.5Z"/><path class="cls-1" d="M35.1,70.5a4.8,4.8,0,0,0,1.71-.4l3.29-1.44a7.89,7.89,0,0,1,5.07-.41l4.17,1.07a4.71,4.71,0,0,0,3-.21l3-1.21a7.84,7.84,0,0,1,5-.31l3.87,1a4.91,4.91,0,0,0,3-.18l3.08-1.23A7.87,7.87,0,0,1,75.36,67l3,.87a4.79,4.79,0,0,0,3.45-.29L83.06,67a7.76,7.76,0,0,1,5.66-.45l3.84,1.15a5.1,5.1,0,0,0,1.6.2l.32,0-4.29-4.64-1.66-.49a4.77,4.77,0,0,0-3.48.28l-1.25.61a7.81,7.81,0,0,1-5.6.47l-3-.87a4.81,4.81,0,0,0-3.13.15L69,64.57a7.82,7.82,0,0,1-4.92.28l-3.86-1a4.76,4.76,0,0,0-3.07.19l-3,1.21a7.78,7.78,0,0,1-4.88.34L45.1,64.49a4.85,4.85,0,0,0-3.12.25l-3.3,1.44a7.79,7.79,0,0,1-2.77.65L31.82,67,22.94,56.92l-2,.66,11.47,13Z"/><path class="cls-1" d="M91.7,70.52l-3.84-1.15a4.79,4.79,0,0,0-3.49.28l-1.25.61a7.78,7.78,0,0,1-5.59.47l-3-.87A4.84,4.84,0,0,0,71.4,70l-3.08,1.23a7.82,7.82,0,0,1-4.92.28l-3.87-1a4.79,4.79,0,0,0-3.06.19l-3,1.21a7.78,7.78,0,0,1-4.88.34l-4.18-1.07a4.81,4.81,0,0,0-3.11.25L38,72.85a7.84,7.84,0,0,1-2.78.65l-4.09.18-8.42-9.57-.55.18,11.48,13,2.65-.12a4.8,4.8,0,0,0,1.71-.4l3.3-1.44A7.86,7.86,0,0,1,46.37,75L50.55,76a4.82,4.82,0,0,0,3-.21l3-1.21a7.84,7.84,0,0,1,5-.31l3.87,1a4.91,4.91,0,0,0,3-.18l3.08-1.23a7.9,7.9,0,0,1,5.08-.24l3,.87A4.77,4.77,0,0,0,83,74.27l1.26-.61a7.73,7.73,0,0,1,5.65-.45l3.85,1.15a5.07,5.07,0,0,0,1.59.2l.32,0L92,70.61C91.93,70.58,91.81,70.56,91.7,70.52Z"/></g></g></svg>