<?xml version="1.0" encoding="utf-8"?>
<svg xmlns="http://www.w3.org/2000/svg"  width="118" height="118" viewbox="0 0 118 118"><defs><style>.cls-1{fill:hsl(210 30% 96%);}</style></defs><g id="Calque_2" data-name="Calque 2"><g id="Calque_1-2" data-name="Calque 1"><path class="cls-1" d="M46.47,32.89H44.19l-.36-.14-.3-.3-.14-.36V31l.14-.35.3-.3.12-.05V21.17H38v9.07h.28l.36.15.3.3.14.35v1.05l-.14.36-.3.3-.36.14H35.46a6.33,6.33,0,0,0-6.32,6.32V50.34H43.53l.35.15.3.3.15.35v1l-.15.35-.3.3-.35.15H29.14V77.43H46.35a2.57,2.57,0,0,0,2.56-2.57V55.56A2.57,2.57,0,0,0,46.35,53H45.24l-.36-.15-.3-.3-.14-.35v-1l.14-.35.3-.3.36-.15h1.11a5.22,5.22,0,0,1,5.21,5.22v19.3a5.21,5.21,0,0,1-5.21,5.21H29.14V97.55a1.92,1.92,0,0,0,1.91,1.91H50.88a1.91,1.91,0,0,0,1.91-1.91V39.21A6.33,6.33,0,0,0,46.47,32.89Z"/><path class="cls-1" d="M86.34,59.47A1.39,1.39,0,0,0,85.27,59H70.48a1.38,1.38,0,0,0-1.07.51L67,62.32a1.39,1.39,0,0,0-.32.89v5.44H74a10.28,10.28,0,0,0,3.72-.7L82,66.3l.49.07.34.27L83,67l0,1-.1.28-.18.24-.22.16-3.79,1.48a12.6,12.6,0,0,1-4.62.88H66.72V91.3h6.33a10.07,10.07,0,0,0,3.71-.71l5.19-2,.49.07.34.27.19.4,0,1-.1.28-.18.24-.22.16L77.67,92.9a12.59,12.59,0,0,1-4.62.87H66.72v1.54a1.44,1.44,0,0,0,.31.89l2.38,2.91a1.39,1.39,0,0,0,1.09.52H85.25a1.39,1.39,0,0,0,1.09-.52l2.38-2.92a1.39,1.39,0,0,0,.31-.88V89.48h-.51a10.47,10.47,0,0,0-3.83.73l-.26,0L84,90.16l-.41-.38-.23-1,.15-.48.36-.34.16-.1A12.46,12.46,0,0,1,88.52,87H89V66.76a10.16,10.16,0,0,0-3.25.69l-1.73.68-.49-.07-.34-.27-.19-.4,0-1,.1-.28.17-.24.22-.17,1.33-.5A12.32,12.32,0,0,1,89,64.28V63.21a1.39,1.39,0,0,0-.32-.89Z"/><path class="cls-1" d="M59,0a59,59,0,1,0,59,59A59,59,0,0,0,59,0ZM55.44,97.55a4.56,4.56,0,0,1-4.56,4.56H31.05a4.57,4.57,0,0,1-4.56-4.56V39.21a9,9,0,0,1,8.85-9V21a2.49,2.49,0,0,1-1.6-2.32v-.32a2.48,2.48,0,0,1,2.47-2.48h9.51a2.49,2.49,0,0,1,2.48,2.48v.32A2.49,2.49,0,0,1,46.6,21v9.23a9,9,0,0,1,8.84,9Zm36.07-2.24a3.9,3.9,0,0,1-.87,2.45l-2.38,2.92a3.87,3.87,0,0,1-3,1.43H70.5a3.87,3.87,0,0,1-3-1.43l-2.38-2.92a3.9,3.9,0,0,1-.87-2.45V63.21a3.85,3.85,0,0,1,.9-2.47l2.36-2.85a3.86,3.86,0,0,1,3-1.4H85.27a3.87,3.87,0,0,1,3,1.4l2.36,2.85a3.85,3.85,0,0,1,.9,2.47Z"/></g></g></svg>