<?xml version="1.0" encoding="utf-8"?>
<svg xmlns="http://www.w3.org/2000/svg" width="118" height="118" viewbox="0 0 118 118"><defs><style>.cls-1{fill:hsl(210 30% 96%);}</style></defs><g id="Calque_2" data-name="Calque 2"><g id="Calque_4" data-name="Calque 4"><path class="cls-1" d="M59,0a59,59,0,1,0,59,59A59,59,0,0,0,59,0ZM96.73,82.57h-.79C90.38,82.57,85.5,87.92,85.5,94a7.45,7.45,0,0,1-7.44,7.44h-.78A7.45,7.45,0,0,1,69.83,94c0-6.1-4.87-11.45-10.44-11.45h-.78C53,82.57,48.17,87.92,48.17,94a7.45,7.45,0,0,1-7.45,7.44h-.78A7.45,7.45,0,0,1,32.5,94c0-6.1-4.88-11.45-10.44-11.45h-.79a9.24,9.24,0,0,0-7.61,4.14,53.14,53.14,0,1,1,90.89-.35A10.55,10.55,0,0,0,96.73,82.57Z"/><circle class="cls-1" cx="59" cy="59" r="18.81" transform="translate(-11.98 15.13) rotate(-13.28)"/><path class="cls-1" d="M56.73,23.88a1.85,1.85,0,0,0,.48,1A2,2,0,0,0,59,25.5a2,2,0,0,0,1.62-2.32l-1.49-8.4a2,2,0,0,0-3.94.7Z"/><path class="cls-1" d="M70.8,20.29a2,2,0,0,0,.87.65A2,2,0,0,0,74,17.86l-5.18-6.78a2,2,0,0,0-3.18,2.43Z"/><path class="cls-1" d="M93.71,50.82l-7.85,3.34a2,2,0,1,0,1.57,3.68l7.85-3.34a2.07,2.07,0,0,0,.85-.69,2,2,0,0,0-2.42-3Z"/><path class="cls-1" d="M82.71,28.25,90,32.75a2,2,0,1,0,2.11-3.4l-7.25-4.5a2,2,0,0,0-2.11,3.4Z"/><path class="cls-1" d="M31,31.22a2,2,0,0,0,.16-1.94,2,2,0,0,0-2.64-1L20.72,31.8a2,2,0,0,0,1.64,3.64l7.78-3.51A2,2,0,0,0,31,31.22Z"/><path class="cls-1" d="M32.45,25.6a2,2,0,0,0,2.79-.5l4.88-7a2,2,0,1,0-3.28-2.29l-4.88,7a2,2,0,0,0-.36,1A2,2,0,0,0,32.45,25.6Z"/><path class="cls-1" d="M53.89,35.25a2,2,0,0,0,.83.72,2,2,0,0,0,2.53-2.89l-4.62-7.17a2,2,0,0,0-3.36,2.17Z"/><path class="cls-1" d="M37.34,68.1a2,2,0,0,0-2.77.57l-4.7,7.12a2.06,2.06,0,0,0-.33,1A2,2,0,0,0,33.21,78l4.7-7.12A2,2,0,0,0,37.34,68.1Z"/><path class="cls-1" d="M44,78.68l-6.06,6a2.07,2.07,0,0,0-.54.95,2,2,0,0,0,3.36,1.89l6.06-6A2,2,0,1,0,44,78.68Z"/><path class="cls-1" d="M78.78,76.84a2,2,0,0,0-1.93,2.07l.31,8.52a2,2,0,0,0,2.07,1.93,2,2,0,0,0,1.93-2.07l-.31-8.53A2,2,0,0,0,78.78,76.84Z"/><path class="cls-1" d="M92.07,71.19l-7.25-4.5a2,2,0,0,0-2.11,3.4L90,74.59a1.93,1.93,0,0,0,1.05.3,2,2,0,0,0,1.06-3.7Z"/><path class="cls-1" d="M105.44,66.69l-4.51-7.24a2,2,0,1,0-3.39,2.12l4.51,7.24a2,2,0,0,0,.81.73,2,2,0,0,0,1.94-.09A2,2,0,0,0,105.44,66.69Z"/><path class="cls-1" d="M100.43,34.67a2,2,0,0,0-2.7.82L93.7,43a2,2,0,0,0-.24,1.07,2,2,0,0,0,1.05,1.63,2,2,0,0,0,2.71-.82l4-7.52A2,2,0,0,0,100.43,34.67Z"/><path class="cls-1" d="M70.09,37.49a2,2,0,0,0,2.83,2.61l7.28-4.45a2,2,0,0,0-2.09-3.42l-7.28,4.45A1.92,1.92,0,0,0,70.09,37.49Z"/><path class="cls-1" d="M24.54,60.18l-7.25,4.49a2,2,0,0,0,2.1,3.4l7.26-4.48a2,2,0,1,0-2.11-3.41Z"/><path class="cls-1" d="M20.28,54.19a2,2,0,0,0,2.34-3.06l-5.11-6.84a2,2,0,0,0-3.2,2.4l5.1,6.83A2,2,0,0,0,20.28,54.19Z"/><path class="cls-1" d="M38.51,31.86l-3.07,8a2.05,2.05,0,0,0-.1,1.09,2,2,0,0,0,3.83.35l3.07-8a2,2,0,0,0-3.73-1.44Z"/></g></g></svg>