<?xml version="1.0" encoding="utf-8"?>
<svg xmlns="http://www.w3.org/2000/svg" width="118" height="118" viewbox="0 0 118 118"><defs><style>.cls-1{fill:hsl(210 30% 96%);}</style></defs><g id="Calque_2" data-name="Calque 2"><g id="Calque_3" data-name="Calque 3"><path class="cls-1" d="M61.79,86.06a1,1,0,1,0,0-1.93,1,1,0,0,0,0,1.93Z"/><path class="cls-1" d="M70,61.82a1,1,0,1,0,1,1A1,1,0,0,0,70,61.82Z"/><path class="cls-1" d="M42.61,97.7a32.76,32.76,0,0,0,22.32,9.56v-2.74a30,30,0,0,1-20.39-8.75Z"/><path class="cls-1" d="M45.63,51.92a30.19,30.19,0,0,1,19.3-7.73V41.46A32.86,32.86,0,0,0,43.69,50Z"/><path class="cls-1" d="M44.38,53.11l-1.93-1.93a32.82,32.82,0,0,0-9.52,21.26h2.74A30.14,30.14,0,0,1,44.38,53.11Z"/><path class="cls-1" d="M87.89,50a32.89,32.89,0,0,0-21.24-8.53v2.73A30.24,30.24,0,0,1,86,51.92Z"/><path class="cls-1" d="M35.61,74.36v-.2H32.88v.2a32.8,32.8,0,0,0,8.55,22.09l1.93-1.92A30.14,30.14,0,0,1,35.61,74.36Z"/><path class="cls-1" d="M87.21,53.11a30.14,30.14,0,0,1,8.71,19.33h2.74a32.78,32.78,0,0,0-9.53-21.26Z"/><path class="cls-1" d="M66.65,104.52v2.74A32.76,32.76,0,0,0,89,97.7L87,95.77A30,30,0,0,1,66.65,104.52Z"/><path class="cls-1" d="M96,74.36a30.12,30.12,0,0,1-7.75,20.17l1.93,1.92a32.76,32.76,0,0,0,8.55-22.09v-.2H96Z"/><path class="cls-1" d="M59,0a59,59,0,1,0,59,59A59,59,0,0,0,59,0ZM26.47,83.11,23,78.78a5,5,0,0,1-1.11-3.1V28.08A4.93,4.93,0,0,1,23,24.94l3.5-4.22a4.88,4.88,0,0,1,3.77-1.78H52.18A4.9,4.9,0,0,1,56,20.72l3.5,4.22a4.94,4.94,0,0,1,1.13,3.14v9.65c-.67.09-1.33.2-2,.33V32.68l-.13-.17h-.18a15.38,15.38,0,0,0-5.65,1.07l-2.57,1-.4-.38.08-1.47.24-.29,1.92-.72a17.82,17.82,0,0,1,6.49-1.24l.17-.13,0-2.28a3,3,0,0,0-.67-1.87L54.43,22a2.93,2.93,0,0,0-2.25-1.06H30.25A2.93,2.93,0,0,0,28,22L24.5,26.21a3,3,0,0,0-.67,1.87v8.7L24,37l11.56,0a15.82,15.82,0,0,0,5.81-1.1l6.23-2.45.41.38-.08,1.47-.24.29-5.59,2.16A17.84,17.84,0,0,1,35.52,39H24l-.17.13,0,31.27.13.17h4.73c-.07.66-.13,1.33-.16,2H24l-.07,0-.1.1,0,3a2.94,2.94,0,0,0,.66,1.84L28,81.85a2.89,2.89,0,0,0,1.4.93c.16.71.34,1.42.55,2.12A5,5,0,0,1,26.47,83.11ZM65.79,109a34.64,34.64,0,1,1,34.65-34.64A34.68,34.68,0,0,1,65.79,109Z"/><path class="cls-1" d="M86.09,61.48a1,1,0,1,0-1-1A1,1,0,0,0,86.09,61.48Z"/><path class="cls-1" d="M78.31,67.37a1,1,0,1,0,0,1.93,1,1,0,0,0,0-1.93Z"/><path class="cls-1" d="M67.87,72.44H94.19A28.45,28.45,0,0,0,86,54.33ZM78.31,71A2.69,2.69,0,1,1,81,68.34,2.69,2.69,0,0,1,78.31,71Zm11.36-2.35A2.69,2.69,0,0,1,87,71a1.88,1.88,0,0,1-.34,0l-.2-.16.1-1.3.17-.2a.73.73,0,0,1,.23,0h0a1,1,0,0,0,1-.84,1,1,0,0,0-.19-.71,1,1,0,0,0-.64-.37l-.2-.16.1-1.3.17-.2a2.48,2.48,0,0,1,1.93,1A2.66,2.66,0,0,1,89.67,68.67Zm-.9-8.16a2.69,2.69,0,1,1-2.68-2.68A2.68,2.68,0,0,1,88.77,60.51Z"/><path class="cls-1" d="M81.62,83.75a1,1,0,1,0-1-1A1,1,0,0,0,81.62,83.75Z"/><path class="cls-1" d="M87,93.31a28.36,28.36,0,0,0,7.25-19v-.2H67.87Zm0-16.87a2.09,2.09,0,0,1,1-.27A2.7,2.7,0,0,1,90.52,80,2.73,2.73,0,0,1,89,81.38h-.11l-.15-.06-.49-1.2,0-.25a1.3,1.3,0,0,0,.65-.61,1,1,0,0,0,0-.74,1,1,0,0,0-.91-.63,1,1,0,0,0-.33.06l-.25-.06-.5-1.2ZM85,87.59a1.33,1.33,0,0,0,.88.41,1,1,0,0,0,.63-.24,1,1,0,0,0,.33-.65.93.93,0,0,0-.23-.7l0-.26,1-.89.26,0a2.59,2.59,0,0,1,.76,2,2.55,2.55,0,0,1-.92,1.83,2.67,2.67,0,0,1-3.78-.29l0-.26.95-.89ZM81.62,80.1a2.69,2.69,0,1,1-2.69,2.68A2.68,2.68,0,0,1,81.62,80.1Zm-5.93-4.71a2.69,2.69,0,0,1,.17,5.37h0l-.06,0-.13-.1-.14-1.29.12-.23a1.32,1.32,0,0,0,.8-.4.92.92,0,0,0,.23-.69,1,1,0,0,0-.32-.67,1,1,0,0,0-.65-.23L75.43,77l-.19-1.31.13-.23A.82.82,0,0,1,75.69,75.39Z"/><path class="cls-1" d="M66.65,75.38V102.8a28.34,28.34,0,0,0,19.18-8.25Zm1.46,5.91a2.65,2.65,0,0,1,1.49-.46,3,3,0,0,1,.52,0A2.68,2.68,0,0,1,72.24,84l-.18.18-.11,0h0L70.77,84l-.18-.18a1.45,1.45,0,0,0-.18-.87,1,1,0,0,0-.62-.41l-.19,0a1,1,0,0,0-.53.17.93.93,0,0,0-.41.61l-.18.19-1.29-.19L67,83.15A2.48,2.48,0,0,1,68.11,81.29Zm2.48,17a2.73,2.73,0,0,1-.8.13,2.68,2.68,0,0,1-1.24-.31,2.69,2.69,0,0,1-1.14-3.62l.22-.13,1.18.55.13.22a1.09,1.09,0,0,0,.4,1.45.88.88,0,0,0,.45.11.94.94,0,0,0,.85-.51l.22-.13,1.19.54.13.23A2.48,2.48,0,0,1,70.59,98.33Zm1.26-6.9a2.69,2.69,0,1,1,2.68-2.69A2.7,2.7,0,0,1,71.85,91.43ZM78,95.35a2.67,2.67,0,0,1-1-.19L76.81,95l.43-1.23.21-.15c.26,0,.39.06.52.06a1,1,0,0,0,.89-.6,1,1,0,0,0,0-.74,1,1,0,0,0-.53-.52l-.15-.21.43-1.23.21-.15a2.52,2.52,0,0,1,1.62,1.44A2.68,2.68,0,0,1,78,95.35Z"/><path class="cls-1" d="M71.85,87.78a1,1,0,1,0,1,1A1,1,0,0,0,71.85,87.78Z"/><path class="cls-1" d="M60.86,98.54a1,1,0,1,0-1-1A1,1,0,0,0,60.86,98.54Z"/><path class="cls-1" d="M64.93,102.8V75.38L45.76,94.55A28.3,28.3,0,0,0,64.93,102.8ZM61.79,82.41a2.69,2.69,0,1,1-2.68,2.68A2.69,2.69,0,0,1,61.79,82.41Zm-.93,12.48a2.69,2.69,0,1,1-2.69,2.68A2.68,2.68,0,0,1,60.86,94.89Zm-6.59-6.53.25.06L55,89.64l-.06.25a1.36,1.36,0,0,0-.67.58,1,1,0,0,0-.06.74.95.95,0,0,0,.92.66.79.79,0,0,0,.3-.05l.25.07.46,1.22-.06.25a2,2,0,0,1-1,.23,2.51,2.51,0,0,1-1.21-.29,2.68,2.68,0,0,1,.37-4.94Z"/><path class="cls-1" d="M53.92,78.87a1,1,0,1,0-1-1A1,1,0,0,0,53.92,78.87Z"/><path class="cls-1" d="M45.05,87.31a1,1,0,1,0-1-1A1,1,0,0,0,45.05,87.31Z"/><path class="cls-1" d="M37.33,74.36a28.4,28.4,0,0,0,7.24,19L63.71,74.16H37.33Zm16.59.86a2.69,2.69,0,1,1-2.69,2.69A2.69,2.69,0,0,1,53.92,75.22ZM43.6,77.06A2.69,2.69,0,0,1,45.33,76a3.89,3.89,0,0,1,.47,0,2.68,2.68,0,0,1,1.54.49l.09.24-.69,1.1-.24.1a1.61,1.61,0,0,0-.7-.21l-.17,0a.92.92,0,0,0-.62.4.9.9,0,0,0-.16.71.94.94,0,0,0,.39.63l.1.23-.69,1.11-.24.1h0l-.07,0a2.66,2.66,0,0,1-1.14-1.75A2.69,2.69,0,0,1,43.6,77.06Zm1.45,6.6a2.69,2.69,0,1,1-2.69,2.68A2.68,2.68,0,0,1,45.05,83.66Z"/><path class="cls-1" d="M46.87,67.48a1,1,0,1,0,1,1A1,1,0,0,0,46.87,67.48Z"/><path class="cls-1" d="M45.6,54.33a28.35,28.35,0,0,0-8.2,18.11H63.71Zm-1.5,8.93L43,64l-.11,0h0l-.13,0a2.53,2.53,0,0,1-.36-2.13,2.69,2.69,0,0,1,4.93-.6l0,.26-1.1.69h-.26a1.21,1.21,0,0,0-1-.58.94.94,0,0,0-.47.12,1,1,0,0,0-.46.58.93.93,0,0,0,.09.73Zm2.77,7.87a2.69,2.69,0,1,1,2.69-2.69A2.68,2.68,0,0,1,46.87,71.13Zm9,.19-.1.05h0a2.69,2.69,0,1,1,0-5.37l.22.14.06,1.3-.14.22a1.09,1.09,0,0,0-1.1,1,1,1,0,0,0,1,1l.22.14L56,71.1Z"/><path class="cls-1" d="M58.87,56.78a1,1,0,1,0-1-1A1,1,0,0,0,58.87,56.78Z"/><path class="cls-1" d="M64.93,71.22V45.92a28.4,28.4,0,0,0-18.08,7.22Zm-.87-7.73a2.65,2.65,0,0,1-1.51,1.39,2.73,2.73,0,0,1-.93.17,2.68,2.68,0,0,1-1.12-.24l-.14-.22.48-1.21.22-.14a2.9,2.9,0,0,0,.56.09,1,1,0,0,0,.9-1.3,1,1,0,0,0-.5-.54l-.14-.22.49-1.21.22-.14a2.5,2.5,0,0,1,1.55,1.51A2.68,2.68,0,0,1,64.06,63.49ZM59.81,48.25a2.71,2.71,0,0,1,1.57-.5l.44,0A2.7,2.7,0,0,1,64,50.87l-.17.19-.11,0h0l-1.14-.19-.19-.17a1.42,1.42,0,0,0-.21-.87,1,1,0,0,0-.63-.39h-.16a1,1,0,0,0-.56.18,1,1,0,0,0-.39.63l-.17.19L59,50.32l-.2-.17A2.52,2.52,0,0,1,59.81,48.25Zm-.94,4.88a2.69,2.69,0,1,1-2.69,2.68A2.68,2.68,0,0,1,58.87,53.13Zm-5.72-2.61a2.67,2.67,0,0,1,1.82.71l.06.25-.83,1-.25.06a1.45,1.45,0,0,0-.8-.3,1,1,0,0,0-1,1,1,1,0,0,0,.32.67l.06.25-.84,1-.25.07h0l-.07,0a2.66,2.66,0,0,1-.9-1.89,2.71,2.71,0,0,1,.71-1.92A2.67,2.67,0,0,1,53.15,50.52Z"/><path class="cls-1" d="M78.54,52.23a1,1,0,1,0,1,1A1,1,0,0,0,78.54,52.23Z"/><path class="cls-1" d="M66.65,45.92v25.3L84.74,53.14A28.43,28.43,0,0,0,66.65,45.92Zm1.83,4.54a2.67,2.67,0,0,1,1.59-1.3,2.52,2.52,0,0,1,.77-.11A2.69,2.69,0,0,1,73.41,51l-.07.25-1.23.43-.25-.07a1.14,1.14,0,0,0-1-.8.9.9,0,0,0-.28,0,1,1,0,0,0-.57.47.93.93,0,0,0-.07.73l-.07.25-1.23.43h-.11l-.15-.08A2.48,2.48,0,0,1,68.48,50.46Zm1.54,15a2.68,2.68,0,1,1,2.69-2.68A2.68,2.68,0,0,1,70,65.46Zm5.16-6.29a2.65,2.65,0,0,1-1.36,1.54h-.14l-.13,0-.61-1.13,0-.26a1.5,1.5,0,0,0,.59-.67,1,1,0,0,0,0-.74,1,1,0,0,0-.87-.54.92.92,0,0,0-.42.1l-.25,0-.63-1.15,0-.25a2.17,2.17,0,0,1,1.27-.39,2.89,2.89,0,0,1,.88.14,2.69,2.69,0,0,1,1.66,3.42Zm3.36-3.29a2.69,2.69,0,1,1,2.69-2.68A2.68,2.68,0,0,1,78.54,55.88Z"/></g></g></svg>