<?xml version="1.0" encoding="utf-8"?>
<svg xmlns="http://www.w3.org/2000/svg" width="118" height="118" viewbox="0 0 118 118"><defs><style>.cls-1{fill:hsl(210 30% 96%);}</style></defs><g id="Calque_2" data-name="Calque 2"><g id="Calque_5" data-name="Calque 5"><path class="cls-1" d="M58,54.51V7a51.59,51.59,0,0,0-33.9,13.6ZM55.42,39.22A4.27,4.27,0,0,1,53,41.47a4.23,4.23,0,0,1-3.31-.12l.88-1.91a2.22,2.22,0,0,0,3-1.09,2.28,2.28,0,0,0,.07-1.72,2.24,2.24,0,0,0-1.17-1.25l.87-1.91a4.33,4.33,0,0,1,2.13,5.75Zm-6.88-26.8a4.35,4.35,0,0,1,3.22-.76,4.34,4.34,0,0,1,3.58,5l-2.07-.34a2.21,2.21,0,0,0-.39-1.67,2.24,2.24,0,0,0-1.45-.9,2.21,2.21,0,0,0-1.67.39,2.27,2.27,0,0,0-.9,1.46l-2.07-.34A4.34,4.34,0,0,1,48.54,12.42Zm-2,8.86a4.34,4.34,0,1,1-4.33,4.33A4.34,4.34,0,0,1,46.54,21.28Zm-7.36-3.54-1.41,1.54a2.23,2.23,0,0,0-3.16.13A2.18,2.18,0,0,0,34,21a2.25,2.25,0,0,0,.71,1.55l-1.41,1.54a4.33,4.33,0,0,1,5.86-6.37Z"/><path class="cls-1" d="M46.54,27.85a2.24,2.24,0,1,0-2.24-2.24A2.23,2.23,0,0,0,46.54,27.85Z"/><path class="cls-1" d="M69.89,82.66a2.24,2.24,0,1,0,2.24,2.23A2.24,2.24,0,0,0,69.89,82.66Z"/><path class="cls-1" d="M66.61,35.92a2.24,2.24,0,1,0,2.23,2.24A2.24,2.24,0,0,0,66.61,35.92Z"/><path class="cls-1" d="M37.63,67.63a2.24,2.24,0,1,0-2.23-2.24A2.24,2.24,0,0,0,37.63,67.63Z"/><path class="cls-1" d="M50.12,103a2.24,2.24,0,1,0-2.24-2.24A2.23,2.23,0,0,0,50.12,103Z"/><path class="cls-1" d="M81.52,45.92a2.24,2.24,0,1,0,2.23,2.24A2.24,2.24,0,0,0,81.52,45.92Z"/><path class="cls-1" d="M51.8,80.56a2.24,2.24,0,1,0-2.23-2.24A2.24,2.24,0,0,0,51.8,80.56Z"/><path class="cls-1" d="M95.51,36.32a2.24,2.24,0,1,0-2.24-2.24A2.24,2.24,0,0,0,95.51,36.32Z"/><path class="cls-1" d="M81.94,18.68a2.24,2.24,0,1,0,2.24,2.23A2.24,2.24,0,0,0,81.94,18.68Z"/><path class="cls-1" d="M21.68,82.81a2.24,2.24,0,1,0-2.24-2.24A2.25,2.25,0,0,0,21.68,82.81Z"/><path class="cls-1" d="M87.47,76.4a2.24,2.24,0,1,0-2.23-2.24A2.24,2.24,0,0,0,87.47,76.4Z"/><path class="cls-1" d="M22.73,48.36A2.24,2.24,0,1,0,25,46.12,2.23,2.23,0,0,0,22.73,48.36Z"/><path class="cls-1" d="M60.05,59.57v51A51.63,51.63,0,0,0,95.72,95.26Zm3.4,12.32a4.29,4.29,0,0,1,3.25-.65,4.33,4.33,0,0,1,3.41,5.08l-2-.4a2.26,2.26,0,0,0-.34-1.68,2.22,2.22,0,0,0-1.43-.95,2.27,2.27,0,0,0-1.68.34,2.21,2.21,0,0,0-.94,1.43l-2.06-.41A4.36,4.36,0,0,1,63.45,71.89Zm4,29.78a4.21,4.21,0,0,1-1.31.2,4.28,4.28,0,0,1-2-.49,4.34,4.34,0,0,1-1.83-5.85l1.85,1a2.24,2.24,0,0,0,4,2.07l1.86,1A4.32,4.32,0,0,1,67.49,101.67Zm2.4-12.45a4.33,4.33,0,1,1,4.33-4.33A4.33,4.33,0,0,1,69.89,89.22Zm11,7.06A4.4,4.4,0,0,1,79.28,96L80.07,94a2.24,2.24,0,0,0,1.68-4.15l.78-1.94a4.3,4.3,0,0,1,2.36,2.32,4.32,4.32,0,0,1-4,6Z"/><path class="cls-1" d="M97.17,93.74a51.65,51.65,0,0,0,13.61-35c0-.23,0-.45,0-.68H61.53Zm3.76-30.57a4.27,4.27,0,0,1,2.24,2.44,4.32,4.32,0,0,1-.15,3.31,4.24,4.24,0,0,1-2.44,2.24l-.71-2a2.24,2.24,0,0,0,.18-4.13A2.25,2.25,0,0,0,98.34,65l-.72-2A4.32,4.32,0,0,1,100.93,63.17Zm-7.51,20.1a2.23,2.23,0,0,0,3.39-2.91L98.4,79a4.33,4.33,0,0,1-6.57,5.63Zm-6-13.44a4.33,4.33,0,1,1-4.33,4.33A4.33,4.33,0,0,1,87.47,69.83Zm-6.36-4.42a4.33,4.33,0,0,1-4,4.61l-.14-2.09A2.24,2.24,0,0,0,79,65.55,2.24,2.24,0,0,0,78.26,64a2.27,2.27,0,0,0-1.62-.55l-.14-2.09a4.35,4.35,0,0,1,4.61,4Z"/><path class="cls-1" d="M61.53,56H110.7A51.63,51.63,0,0,0,95.47,22Zm20-3.5a4.33,4.33,0,1,1,4.33-4.33A4.33,4.33,0,0,1,81.52,52.49Zm19.94-3.79a4.34,4.34,0,0,1-4.29,3.78,3.6,3.6,0,0,1-.56,0l.27-2.07a2.24,2.24,0,0,0,.57-4.44l.27-2.08A4.34,4.34,0,0,1,101.46,48.7ZM99.84,34.08a4.33,4.33,0,1,1-4.33-4.33A4.33,4.33,0,0,1,99.84,34.08Z"/><path class="cls-1" d="M7.3,56H56.47L22.53,22A51.63,51.63,0,0,0,7.3,56ZM40.91,44.48v2.09a2.24,2.24,0,0,0,0,4.48v2.09a4.33,4.33,0,0,1,0-8.66ZM29.29,48.36A4.33,4.33,0,1,1,25,44,4.34,4.34,0,0,1,29.29,48.36Zm-4-12.77-1.83,1a2.23,2.23,0,1,0-3.89,2.2l-1.83,1a4.33,4.33,0,1,1,7.55-4.25Z"/><path class="cls-1" d="M60.05,7V54.51L94,20.59A51.63,51.63,0,0,0,60.05,7Zm6.79,7.13A4.34,4.34,0,0,1,72.23,17l-2,.6a2.24,2.24,0,1,0-4.28,1.29l-2,.6A4.35,4.35,0,0,1,66.84,14.12Zm-.23,28.37a4.33,4.33,0,1,1,4.33-4.33A4.33,4.33,0,0,1,66.61,42.49Zm8.81-11A4.33,4.33,0,0,1,73.22,34l-.91-1.88a2.25,2.25,0,0,0,1.13-1.29,2.21,2.21,0,0,0-.1-1.71,2.24,2.24,0,0,0-3-1l-.92-1.88a4.28,4.28,0,0,1,3.31-.2,4.33,4.33,0,0,1,2.48,2.2A4.28,4.28,0,0,1,75.42,31.5Zm6.52-6.25a4.34,4.34,0,1,1,4.33-4.34A4.34,4.34,0,0,1,81.94,25.25Z"/><path class="cls-1" d="M58,110.55v-51L22.28,95.26A51.63,51.63,0,0,0,58,110.55ZM51.8,74a4.34,4.34,0,1,1-4.33,4.33A4.33,4.33,0,0,1,51.8,74ZM50.12,96.45a4.33,4.33,0,1,1-4.33,4.33A4.33,4.33,0,0,1,50.12,96.45ZM38.43,84.67l.65,2a2.25,2.25,0,0,0-1.43,2.83,2.23,2.23,0,0,0,1.12,1.29,2.19,2.19,0,0,0,1.7.13l.66,2a4.25,4.25,0,0,1-1.36.22,4.34,4.34,0,0,1-2-.47,4.33,4.33,0,0,1,.61-8Z"/><path class="cls-1" d="M7.22,58.77a51.6,51.6,0,0,0,13.61,35L56.47,58.09H7.24C7.23,58.32,7.22,58.54,7.22,58.77Zm30.41,2.29a4.33,4.33,0,1,1-4.33,4.33A4.33,4.33,0,0,1,37.63,61.06ZM19.48,64.15a4.29,4.29,0,0,1,2.79-1.78,4.25,4.25,0,0,1,3.24.72l-1.2,1.71a2.24,2.24,0,1,0-2.57,3.66l-1.2,1.72a4.33,4.33,0,0,1-1.06-6Zm2.2,12.09a4.33,4.33,0,1,1-4.33,4.33A4.33,4.33,0,0,1,21.68,76.24Z"/><path class="cls-1" d="M98.94,15.6A58.75,58.75,0,0,0,60.05,0V4.9A53.64,53.64,0,0,1,95.43,19.11Z"/><path class="cls-1" d="M17.07,100.47A58.77,58.77,0,0,0,58,118v-5.36A53.64,53.64,0,0,1,20.8,96.74Z"/><path class="cls-1" d="M118,58.09h-5.12c0,.23,0,.45,0,.68A53.72,53.72,0,0,1,98.65,95.22L102.38,99A58.81,58.81,0,0,0,118,59C118,58.69,118,58.39,118,58.09Z"/><path class="cls-1" d="M112.8,56h5.12a58.8,58.8,0,0,0-17.47-38.94L97,20.55A53.75,53.75,0,0,1,112.8,56Z"/><path class="cls-1" d="M5.12,58.77c0-.23,0-.45,0-.68H0c0,.3,0,.6,0,.91A58.83,58.83,0,0,0,15.62,99l3.73-3.74A53.68,53.68,0,0,1,5.12,58.77Z"/><path class="cls-1" d="M22.57,19.11A53.62,53.62,0,0,1,58,4.9V0A58.75,58.75,0,0,0,19.06,15.6Z"/><path class="cls-1" d="M60.05,112.64V118a58.77,58.77,0,0,0,40.88-17.53L97.2,96.74A53.66,53.66,0,0,1,60.05,112.64Z"/><path class="cls-1" d="M21.05,20.55l-3.51-3.5A58.86,58.86,0,0,0,.08,56H5.19A53.76,53.76,0,0,1,21.05,20.55Z"/></g></g></svg>