<svg xmlns="http://www.w3.org/2000/svg" viewBox="0 0 470.59 119.36"><defs><style>.cls-1{fill:hsl(345 100% 99%);}</style></defs><g id="Calque_2" data-name="Calque 2"><g id="logov1"><path class="cls-1" d="M3.19,54A4.85,4.85,0,0,1,0,49.47H0a4.84,4.84,0,0,1,3.19-4.55L44.12,30v9.28L13.68,49.43,44.12,62.86v9.19Z"/><path class="cls-1" d="M426.48,77.51V68.32l30.43-13.43L426.48,44.75V35.47l40.93,14.91a4.83,4.83,0,0,1,3.18,4.55h0a4.85,4.85,0,0,1-3.18,4.56Z"/><path class="cls-1" d="M106.77,78a22,22,0,0,1-4.55-.45,11.63,11.63,0,0,1-3.82-1.52,7.57,7.57,0,0,1-2.66-2.89,9.36,9.36,0,0,1-1-4.52,9.57,9.57,0,0,1,1.18-4.91,7.5,7.5,0,0,1,3.46-3,13.39,13.39,0,0,1,5.58-1,17.83,17.83,0,0,1,3.76.37,14.46,14.46,0,0,1,3.14,1,11.09,11.09,0,0,1,2.31,1.37l.5,4a9.58,9.58,0,0,0-3-1.26,15.57,15.57,0,0,0-4-.48,8.26,8.26,0,0,0-4.43.95,3.3,3.3,0,0,0-1.46,3,3.52,3.52,0,0,0,.78,2.3,4.61,4.61,0,0,0,2,1.4,7.55,7.55,0,0,0,2.59.45,16.88,16.88,0,0,0,4.46-.42,1.76,1.76,0,0,0,1.37-1.82V59.4a4.62,4.62,0,0,0-1.74-4,8.19,8.19,0,0,0-4.88-1.26,16.11,16.11,0,0,0-4.94.81,12.42,12.42,0,0,0-4.1,2.1V50.59a14.36,14.36,0,0,1,4.55-1.71,28.69,28.69,0,0,1,6.51-.7,20.06,20.06,0,0,1,3.09.25,14.2,14.2,0,0,1,3.14.87A9.15,9.15,0,0,1,117.43,51a8.19,8.19,0,0,1,2,2.78,10,10,0,0,1,.73,4l-.06,13.42a5.16,5.16,0,0,1-1.66,4.06,9.66,9.66,0,0,1-4.66,2.11A35.07,35.07,0,0,1,106.77,78Z"/><path class="cls-1" d="M128,51.26a21.46,21.46,0,0,1,2.81-1.18,32.09,32.09,0,0,1,3.54-1c1.27-.28,2.56-.5,3.87-.67a28.74,28.74,0,0,1,3.7-.25,17.7,17.7,0,0,1,6.49,1,7.82,7.82,0,0,1,4,3.29,11.22,11.22,0,0,1,1.35,5.84V77.2h-7.13V59.57a7.35,7.35,0,0,0-.28-2,4.19,4.19,0,0,0-2.8-2.92,9.23,9.23,0,0,0-3-.42,15.25,15.25,0,0,0-2.83.28,13.07,13.07,0,0,0-2.5.73v22H128Z"/><path class="cls-1" d="M174.4,77.81A17.9,17.9,0,0,1,169,77a13.18,13.18,0,0,1-4.6-2.53,11.82,11.82,0,0,1-3.2-4.49A17.08,17.08,0,0,1,160,63.33a19.07,19.07,0,0,1,1.13-7,12.42,12.42,0,0,1,3.08-4.69A12.16,12.16,0,0,1,168.82,49a17.93,17.93,0,0,1,5.53-.84,25.27,25.27,0,0,1,4.63.44,19.22,19.22,0,0,1,4.23,1.3v6.23a31.31,31.31,0,0,0-3.84-1.38,14.4,14.4,0,0,0-3.9-.53,8.94,8.94,0,0,0-6.18,2c-1.45,1.31-2.18,3.45-2.18,6.4q0,4.66,2,6.88c1.34,1.48,3.55,2.21,6.62,2.21a13.17,13.17,0,0,0,4-.61,23.76,23.76,0,0,0,3.51-1.41v6.18a20.2,20.2,0,0,1-4.1,1.46A21.11,21.11,0,0,1,174.4,77.81Z"/><path class="cls-1" d="M189.56,77.2V51.66a14.3,14.3,0,0,1,2.78-1.38A33,33,0,0,1,197,48.82a22.33,22.33,0,0,1,5.33-.64,13.93,13.93,0,0,1,3.23.3,7.11,7.11,0,0,1,1.93.76v5.39c-.75-.11-1.6-.2-2.55-.28s-1.93-.1-2.92-.08-2,.06-2.86.14-1.73.16-2.44.28V77.2Z"/><path class="cls-1" d="M223.4,78a21.91,21.91,0,0,1-4.54-.45A11.46,11.46,0,0,1,215,76.07a7.67,7.67,0,0,1-2.67-2.89,10.86,10.86,0,0,1,.2-9.43,7.53,7.53,0,0,1,3.45-3,13.48,13.48,0,0,1,5.59-1,17.89,17.89,0,0,1,3.76.37,14.46,14.46,0,0,1,3.14,1,11,11,0,0,1,2.3,1.37l.51,4a9.64,9.64,0,0,0-3-1.26,15.44,15.44,0,0,0-3.95-.48,8.3,8.3,0,0,0-4.44.95,3.32,3.32,0,0,0-1.46,3,3.53,3.53,0,0,0,.79,2.3,4.55,4.55,0,0,0,2,1.4,7.45,7.45,0,0,0,2.58.45,16.77,16.77,0,0,0,4.46-.42,1.76,1.76,0,0,0,1.38-1.82V59.4a4.62,4.62,0,0,0-1.74-4,8.21,8.21,0,0,0-4.88-1.26,16.11,16.11,0,0,0-4.94.81A12.32,12.32,0,0,0,214,57V50.59a14.36,14.36,0,0,1,4.55-1.71,28.69,28.69,0,0,1,6.51-.7,19.84,19.84,0,0,1,3.08.25,14.14,14.14,0,0,1,3.15.87A9.27,9.27,0,0,1,234.07,51a8,8,0,0,1,2,2.78,9.84,9.84,0,0,1,.73,4l0,13.42a5.19,5.19,0,0,1-1.66,4.06,9.7,9.7,0,0,1-4.66,2.11A35.1,35.1,0,0,1,223.4,78Z"/><path class="cls-1" d="M246.87,77.2V54.52h-4.33V48.91h4.38V48a16.34,16.34,0,0,1,.62-4.83A9.52,9.52,0,0,1,249.19,40,7.32,7.32,0,0,1,251.55,38a10,10,0,0,1,2.78-.89,17,17,0,0,1,2.92-.26,13.24,13.24,0,0,1,1.85.14,8.49,8.49,0,0,1,1.57.37v6.29a4.19,4.19,0,0,0-1.06-.71,3.94,3.94,0,0,0-1.52-.25,8.23,8.23,0,0,0-1.51.14,2.86,2.86,0,0,0-1.3.62,3.3,3.3,0,0,0-.89,1.37,6.74,6.74,0,0,0-.34,2.36v1.69h6.62v5.61H254V77.2Z"/><path class="cls-1" d="M277.29,78.09q-4.38,0-6.68-2.16a8.14,8.14,0,0,1-2.3-6.26V54.52h-4.38V48.91h4.38V41.05h7.41v7.86h6.51v5.61h-6.51v14a4.14,4.14,0,0,0,.64,2.53,2.78,2.78,0,0,0,2.33.84,6.7,6.7,0,0,0,1.88-.28,5.93,5.93,0,0,0,1.66-.73v6.17a7.82,7.82,0,0,1-2.39.79A15.15,15.15,0,0,1,277.29,78.09Z"/><path class="cls-1" d="M295.92,77.2l-9.43-28.29h7.64l6.73,23.51-2.19.23,6.46-23.74h5.5L317,72h-1.74l6.62-23.07h7.47L319.89,77.2h-6.57L307.15,57l1.23.34L302.49,77.2Z"/><path class="cls-1" d="M345.54,78q-7,0-10.5-3.88T331.56,63q0-7.85,3.57-11.39c2.37-2.36,5.83-3.54,10.35-3.54a16.57,16.57,0,0,1,7.83,1.66,10.58,10.58,0,0,1,4.69,5,19.29,19.29,0,0,1,1.57,8.3q0,7.31-3.64,11.17T345.54,78Zm-.06-5.84a6.67,6.67,0,0,0,4-1.12,6.52,6.52,0,0,0,2.27-3.2A14.68,14.68,0,0,0,352.5,63a15,15,0,0,0-.76-5.22,5.7,5.7,0,0,0-2.3-3,7.4,7.4,0,0,0-4-.95,7,7,0,0,0-4,1,5.62,5.62,0,0,0-2.19,3,16.33,16.33,0,0,0-.67,5.1,12.17,12.17,0,0,0,1.6,6.82C341.3,71.41,343.05,72.2,345.48,72.2Z"/><path class="cls-1" d="M365.86,77.2V51.66a14.3,14.3,0,0,1,2.78-1.38,33.47,33.47,0,0,1,4.63-1.46,22.39,22.39,0,0,1,5.33-.64,13.93,13.93,0,0,1,3.23.3,7.33,7.33,0,0,1,1.94.76v5.39c-.75-.11-1.6-.2-2.56-.28s-1.93-.1-2.92-.08-1.94.06-2.86.14-1.73.16-2.44.28V77.2Z"/><path class="cls-1" d="M396.17,77.2H389.1v-39h7.18Zm-1.52-16,11-12.29h8.7l-16,16Zm5.11-2.81L415.42,77.2h-9.09l-11.62-14Z"/><path class="cls-1" d="M71.46,78V12.75H48V0h63.15V12.75H87.37V78Z"/><path class="cls-1" d="M363.53,119.36h-204a4.25,4.25,0,0,1-4.25-4.25V84.05h8.5v24.68a2.13,2.13,0,0,0,2.13,2.13h46V84.05h1v26.81H261V84.05h1v26.81h48.18V84.05h1v26.81h46a2.13,2.13,0,0,0,2.13-2.13V84.05h8.5v31.06A4.25,4.25,0,0,1,363.53,119.36Z"/><path class="cls-1" d="M363.53,9.36h-204a4.25,4.25,0,0,0-4.25,4.25V44.67h8.5V20a2.13,2.13,0,0,1,2.13-2.13h46V44.67h1V17.86H261V34.68a5.47,5.47,0,0,1,1,.37V17.86h48.18V44.67h1V17.86h46A2.13,2.13,0,0,1,359.28,20V44.67h8.5V13.61A4.25,4.25,0,0,0,363.53,9.36Z"/></g></g></svg>