<svg id="Calque_2" data-name="Calque 2" xmlns="http://www.w3.org/2000/svg" viewBox="0 0 534.3 158.96"><path d="M893,701.5l-.35-13,.13.27L885.61,683l-.22-.18,0-.37c.15-2.79-1.23-5.82-2.64-8.22-14.48-22.13-65.13-33.8-90.57-38.06a278.71,278.71,0,0,0-36.27-3.75l-.83,0-.75-.5c-36-23.33-75.51-43.11-117.63-52.34A181.55,181.55,0,0,0,610.29,576c-48.87-2.12-97.87-2.25-146.72.19-14.47.76-28.91,1.85-43.31,3.4l1.4-.79c-9.61,12.15-29.24,36.39-39,48.46a30,30,0,0,0-5.68,8.17c-3.79,7.66-4.76,16.53-3.81,25,.21,1.71.53,3.4.79,5.11a63.29,63.29,0,0,1-1.69-10.23c-1-10.29,2.2-22.13,8.88-29.4,9.32-12.4,27.78-37.32,37.15-49.66l.51-.67.89-.12c14.45-2,29-3.44,43.5-4.51a1292.06,1292.06,0,0,1,141.91-2.06c18.47.34,36.83,3.94,54.38,9.49,35,11.09,67.82,28.21,98.12,48.81l-1.58-.52a283.11,283.11,0,0,1,37,4.59c26.75,5.24,70.88,16.91,88.41,38.24,2.93,3.77,5.42,8.09,5.11,13.14l-.2-.55,6.84,6.18.13.12v.15l-.36,13Z" transform="translate(-359.05 -567.82)"/><path d="M359.05,705.3q5.28-9.36,8-15a25.29,25.29,0,0,0,6.88,3,25,25,0,0,0,6.22.86,19.25,19.25,0,0,0,6.79-1.12,8.4,8.4,0,0,0,4.34-3.32,5.7,5.7,0,0,0,.67-1.43,4,4,0,0,0,.13-1.54,5.18,5.18,0,0,0-.59-1.86l-3.78-7.21c-.91-1.64-1.52-2.82-1.83-3.56a12.43,12.43,0,0,1-1-4.17,11,11,0,0,1,.56-3.93,20,20,0,0,1,2.06-4.24,30.18,30.18,0,0,1,4.22-5.25,39.71,39.71,0,0,1,5.84-4.81,39.66,39.66,0,0,1,15.49-6.09,52.34,52.34,0,0,1,7.71-.59,69.32,69.32,0,0,1,15.1,1.71c-1.18,2-2.23,3.88-3.17,5.56s-2.5,4.64-4.7,8.85a23,23,0,0,0-6-2.26,25.86,25.86,0,0,0-5.36-.64,16.73,16.73,0,0,0-6.49,1.28,8.69,8.69,0,0,0-4.23,3.16,5.15,5.15,0,0,0-.72,1.71,4.44,4.44,0,0,0,.09,2,10.09,10.09,0,0,0,1,2.46q.75,1.33,2.48,4l1.6,2.5a16,16,0,0,1,1.3,2.77,13.8,13.8,0,0,1,.81,3.2,10.83,10.83,0,0,1,0,2.9,11.54,11.54,0,0,1-.71,2.66,18.53,18.53,0,0,1-1.49,2.88,33.6,33.6,0,0,1-6.6,7.53,39.15,39.15,0,0,1-9,5.89,41,41,0,0,1-9.64,3.23,48.31,48.31,0,0,1-9.34.92A80.8,80.8,0,0,1,359.05,705.3Z" transform="translate(-359.05 -567.82)"/><path d="M457.38,706.22c-3.31-.06-6.07-.09-8.3-.09-2.76,0-5.54,0-8.36.09l3.71-6q-2.82,2-4.53,3a31.27,31.27,0,0,1-3.48,1.73,31.75,31.75,0,0,1-3.71,1.3,32.55,32.55,0,0,1-4.23.86,33.88,33.88,0,0,1-4.43.3,20.39,20.39,0,0,1-6.06-.81,6.3,6.3,0,0,1-3.73-2.75,5.46,5.46,0,0,1-.46-4.39,22.6,22.6,0,0,1,2.71-5.71c.33-.53.89-1.35,1.67-2.46l6.94-10q3.74-5.49,8.17-12.17,2.73-4.1,5-7.73c3.59,0,6.67.08,9.21.08s5.44,0,8.58-.08L444.27,678.1q-2.7,3.82-3.58,5.21c-.6.92-1,1.55-1.19,1.87q-2.88,4.61-2,6.24c.57,1.08,1.72,1.62,3.46,1.62a9.42,9.42,0,0,0,2.3-.31,15.45,15.45,0,0,0,2.58-.88,17.49,17.49,0,0,0,2.36-1.31,22.07,22.07,0,0,0,2.59-2,31.58,31.58,0,0,0,3-3.12c1.3-1.56,2.77-3.52,4.43-5.89q1.79-2.6,6.07-9l6.08-9.18c3.74,0,6.83.08,9.25.08q4.08,0,8.27-.08-8,11.16-14.84,21.21T457.38,706.22Z" transform="translate(-359.05 -567.82)"/><path d="M453.13,726.78q6.47-9,12.63-18,10.59-15.33,17.46-25.72t13.23-20.58q9.76-1.37,15.11-1.83c3.56-.3,7-.46,10.4-.46a38.8,38.8,0,0,1,10.82,1.32q4.49,1.32,5.63,4.66a13.48,13.48,0,0,1-.11,7.95,36.51,36.51,0,0,1-4.42,9.67,59.84,59.84,0,0,1-6.9,8.94,57.73,57.73,0,0,1-8.91,7.79,40.24,40.24,0,0,1-9.47,5.14,25.76,25.76,0,0,1-8.92,1.67,21.59,21.59,0,0,1-4.2-.41,14.85,14.85,0,0,1-3.61-1.21,10.5,10.5,0,0,1-2.44-1.61,15.49,15.49,0,0,1-2-2.35L479.3,714q-5.58,8.43-8.27,12.74-5-.09-8.7-.09Q459.17,726.69,453.13,726.78Zm53.41-53.07c-1.05,1.32-1.89,2.39-2.5,3.23s-1.4,2-2.38,3.38-1.73,2.56-2.26,3.41a17.58,17.58,0,0,0-2.65,6,4.41,4.41,0,0,0,.76,3.78,4.31,4.31,0,0,0,3.44,1.34,12.46,12.46,0,0,0,5.31-1.39,22.83,22.83,0,0,0,5.8-4.15,31.37,31.37,0,0,0,5.08-6.24q2.94-4.7,2.24-7.55c-.46-1.91-2.28-2.86-5.44-2.86A34.46,34.46,0,0,0,506.54,673.71Z" transform="translate(-359.05 -567.82)"/><path d="M578.17,693Q576,695.59,568,705.69c-3.82.68-7,1.12-9.4,1.34s-4.87.33-7.24.33a51.62,51.62,0,0,1-9.17-.72,11.93,11.93,0,0,1-6-2.57,7.61,7.61,0,0,1-2.47-4.59,13.9,13.9,0,0,1,.8-6.51,35.61,35.61,0,0,1,3.73-7.77,58.12,58.12,0,0,1,9.11-11,54.89,54.89,0,0,1,11-8.4,41.64,41.64,0,0,1,10.84-4.3,44.67,44.67,0,0,1,10.24-1.28,30.22,30.22,0,0,1,8.83,1.17,7.81,7.81,0,0,1,5.17,4.06,9.49,9.49,0,0,1,.41,6.55,28.82,28.82,0,0,1-3.57,7.86,58.6,58.6,0,0,1-4.06,5.58l-30.82,0c-.33.47-.6.89-.84,1.27q-3,4.72-1,7t6.87,2.23a45,45,0,0,0,7-.68Q571.71,694.58,578.17,693ZM560,678.76h14.49c.34-.49.63-.92.84-1.27a10,10,0,0,0,1.63-3.91,2.31,2.31,0,0,0-.84-2.37,5,5,0,0,0-2.94-.75,10.41,10.41,0,0,0-2.81.42,14.76,14.76,0,0,0-3,1.23,19.53,19.53,0,0,0-2.81,1.86,21.09,21.09,0,0,0-2.24,2C561.73,676.68,561,677.59,560,678.76Z" transform="translate(-359.05 -567.82)"/><path d="M579.59,706.22l13.54-19.51,7.44-11.2c1.3-2,2.6-4.08,3.92-6.19s3-4.79,4.88-8q5.26.07,8.38.08,3.64,0,8.45-.08l-3.29,5q2.93-1.94,4.61-2.88a32,32,0,0,1,3.58-1.71,21.85,21.85,0,0,1,3.66-1.14,16.62,16.62,0,0,1,3.44-.38,12.69,12.69,0,0,1,3.24.44q-2.94,4.8-4.72,7.91l-3.92,6.77a12.08,12.08,0,0,0-4.08-.71,16.32,16.32,0,0,0-5,.77,21.17,21.17,0,0,0-4.84,2.33,28.84,28.84,0,0,0-4.78,3.89,56.65,56.65,0,0,0-5.84,7.38q-3.51,5.06-7.57,11.55-1.42,2.3-3.36,5.67-4.21-.09-8.52-.09C585.94,706.13,582.88,706.16,579.59,706.22Z" transform="translate(-359.05 -567.82)"/><path d="M679.89,691.59q-2.14,2.58-5.78,7.21T668.63,706a134.37,134.37,0,0,1-17.66,1.4,36.41,36.41,0,0,1-12.14-1.78,14.3,14.3,0,0,1-7.59-5.84,12.18,12.18,0,0,1-1.35-9.55,41.08,41.08,0,0,1,5.49-12.31,71.3,71.3,0,0,1,43-31,65.32,65.32,0,0,1,14.85-1.82,79.65,79.65,0,0,1,15,1.67l-2.21,3.69q-1.43,2.41-3.06,5.32l-2.82,5a64.42,64.42,0,0,0-7.28-1.67,38.22,38.22,0,0,0-5.64-.43,34.08,34.08,0,0,0-12.16,2.37,42.52,42.52,0,0,0-11.78,6.9,40.88,40.88,0,0,0-9,10c-2.09,3.34-3.11,6.2-3.08,8.59A6.58,6.58,0,0,0,654,692.1q2.67,1.95,8.38,1.95a58.23,58.23,0,0,0,7.1-.5Q673.45,693,679.89,691.59Z" transform="translate(-359.05 -567.82)"/><path d="M702.78,674.15q3.56-4.35,4.8-6t3.93-5.16q14.38-2.76,23.48-2.77a28.4,28.4,0,0,1,8.76,1.17c2.39.77,3.85,2,4.38,3.75s-.21,4.21-2.22,7.43q-1.54,2.46-7.58,11.07t-15.12,22.58q-4.25-.09-8.51-.09t-8.85.09q3.61-4.83,13.79-19.94c-1.44.52-2.55.9-3.32,1.14s-2.1.58-4,1.05-3.35.87-4.44,1.19a17.26,17.26,0,0,0-3.1,1.23,12.21,12.21,0,0,0-2.36,1.54,7.54,7.54,0,0,0-1.51,1.75,2.55,2.55,0,0,0-.41,2.55c.35.7,1.39,1.06,3.12,1.06a16.13,16.13,0,0,0,2.07-.16,27,27,0,0,0,3.38-.77q-3.39,3.39-9.2,9.89a52.05,52.05,0,0,1-7.55.61q-5.45,0-8.12-1.51a4.9,4.9,0,0,1-2.52-4.9,13.89,13.89,0,0,1,2.27-6.77,23.5,23.5,0,0,1,3.25-4,33.67,33.67,0,0,1,4.68-3.86,36.39,36.39,0,0,1,5.62-3.23,46.42,46.42,0,0,1,7.22-2.53q4.32-1.18,10.47-2.24c1.7-.29,3.3-.61,4.78-.95a29.45,29.45,0,0,0,3.27-.87,9.81,9.81,0,0,0,1.87-.88,7.57,7.57,0,0,0,1.38-1.06,6,6,0,0,0,1-1.16c.7-1.11.76-2,.2-2.57s-1.75-.9-3.56-.9Q716.55,669.89,702.78,674.15Z" transform="translate(-359.05 -567.82)"/><path d="M733,706.22l13.55-19.51,7.44-11.2q1.94-3,3.92-6.19t4.88-8c3.5,0,6.3.08,8.38.08q3.64,0,8.45-.08l-3.29,5q2.93-1.94,4.61-2.88a32,32,0,0,1,3.58-1.71,21.56,21.56,0,0,1,3.66-1.14,16.54,16.54,0,0,1,3.44-.38,12.81,12.81,0,0,1,3.24.44q-3,4.8-4.72,7.91l-3.92,6.77a12.08,12.08,0,0,0-4.08-.71,16.43,16.43,0,0,0-5,.77,21.31,21.31,0,0,0-4.83,2.33,28.44,28.44,0,0,0-4.78,3.89A55.8,55.8,0,0,0,761.7,689q-3.51,5.06-7.57,11.55c-1,1.53-2.08,3.42-3.37,5.67q-4.2-.09-8.52-.09T733,706.22Z" transform="translate(-359.05 -567.82)"/><path d="M771.92,705.39c.69-1.29,1.41-2.65,2.19-4.07s1.8-3.37,3.09-5.86l1.62-3.17a37.57,37.57,0,0,0,5.77,2.49,17,17,0,0,0,5.15.81,15.17,15.17,0,0,0,3.73-.4,8.06,8.06,0,0,0,2.67-1.14,5.49,5.49,0,0,0,1.57-1.54,2.4,2.4,0,0,0,.41-1.38,4,4,0,0,0-.92-1.87q-2-2.62-3.34-4.79a11.48,11.48,0,0,1-1.73-3.82,8.22,8.22,0,0,1,.15-3.6,13.76,13.76,0,0,1,1.78-4,27.86,27.86,0,0,1,15.36-11.4,38.92,38.92,0,0,1,10.8-1.43,81.91,81.91,0,0,1,14.6,1.58l-7,12.31a18.79,18.79,0,0,0-8.92-2.11,17.09,17.09,0,0,0-5.48.71,5.48,5.48,0,0,0-2.92,2.19,2.89,2.89,0,0,0-.4.92,1.63,1.63,0,0,0,.06.92,4,4,0,0,0,.52,1c.25.34.86,1.12,1.85,2.35a35.17,35.17,0,0,1,2.24,3,9.66,9.66,0,0,1,1.52,3.58,8.72,8.72,0,0,1-.22,3.52,14.63,14.63,0,0,1-1.78,3.93,24,24,0,0,1-5.1,5.73,28.81,28.81,0,0,1-7.3,4.37,36.23,36.23,0,0,1-8.13,2.44,45.53,45.53,0,0,1-7.77.68,49.77,49.77,0,0,1-6.11-.44A67.2,67.2,0,0,1,771.92,705.39Z" transform="translate(-359.05 -567.82)"/><path d="M576.5,586.5c-4.64,20.79,6.84,37.27,26.5,43.54,10.92,3.24,22.47,3.77,33.84,4.35,30.7,1.18,61.46.3,92.16,1.61-30.75,1.11-61.51,2.52-92.29,1.37-11.57-.63-23.36-1.3-34.52-4.89-20.25-7-32-24.68-25.69-46Z" transform="translate(-359.05 -567.82)"/></svg>