<?xml version="1.0" encoding="utf-8"?>
<svg xmlns="http://www.w3.org/2000/svg" width="334.49" height="196.11" viewbox="0 0 334.49 196.11"><defs><style>.cls-1{fill:hsl(210 30% 96%);}</style></defs><g id="Calque_2" data-name="Calque 2"><g id="Calque_1_-_copie" data-name="Calque 1 - copie"><path class="cls-1" d="M212.34,11.43c3.56-.07,6.91-2.94,6.91-5.9s-2.19-5-5.49-5c-3.8,0-5.39,1.55-5.39,5.2C208.36,9.55,209.7,11.48,212.34,11.43Z"/><path class="cls-1" d="M173.71,119.13c2.22,0,2.49,2,3.35,3.36s-.71,4,1.61,4.71c1.82.57,4,.14,6.06.15a17.7,17.7,0,0,1,1.93,0c2.34.29,3.13-.44,3.1-2.64-.15-9.39-.07-18.78-.06-28.17s-.07-19,.05-28.45c0-2.08-.5-2.77-3-2.73q-12.85.21-25.71,0c-2.67,0-3.37.62-3.35,3,.12,17.74.07,35.47.07,53.21,0,5.78,0,5.8,6.53,5.77,1.7,0,3.64.3,5-.31s.23-2.46.82-3.68c.13-.26.18-.55.28-.81C171,121,171.51,119.15,173.71,119.13ZM176.5,71.3c2.29,0,.32,2.54,1.3,3.68-.77,1.21.8,3.37-1.22,3.41s-1-2.11-1-3.23C175.62,73.8,174.52,71.3,176.5,71.3ZM170,74.64c-.1-1.14-1-3.39.84-3.38,2.22,0,.61,2.3,1.26,3.47-.58,1.25.8,3.63-1.05,3.61C168.64,78.31,170.09,75.93,170,74.64Zm-.51,27.73c-.34-2,2.34-4.64,4.22-4.73s4.9,2.66,4.48,4.76c-.48,2.41-3,.49-4.38,1.33C172.44,102.86,169.9,104.85,169.47,102.37Z"/><path class="cls-1" d="M83.66,188.17c-13.45-9-22-21.45-30.07-34.51,4.46-.38,8.6-.78,12.44-2.37q12-4.93,10.73-16.44c-.71-6.42-4.92-10.2-13.8-11.88-12.19-2.31-24.54-2.23-36.9-1.29a57.74,57.74,0,0,0-11,1.89c-10.92,3-15.95,9.7-14.91,19.8,1,9.24,11.41,16.8,21,15.21-2.15-1.11-4.41-2.17-6.54-3.4-5.09-2.92-8.37-7.05-9.59-12.31s-1-10.61,4.27-14.33c7.53-5.32,16.62-4.64,26-5.07-4.1,4.79-6,9.64-6.22,14.82-.35,8.81-.32,17.63-.28,26.45,0,4.27-2.3,6.93-6.47,8.64-.84.34-1.9.3-2.46,1H46.06c-3.74-2-6.49-4.37-6.5-8.35-.05-13.57,0-27.13-.05-40.7,0-1.28.34-1.89,2-1.86A65.2,65.2,0,0,1,55.14,125c5.91,1.41,9.22,4.87,10.41,10.08,2.27,10-1.76,15.09-13.06,16.46-3,.37-6.05.52-9.37.8A186.84,186.84,0,0,0,56.5,174.6,67.6,67.6,0,0,0,69.39,188c8.33,6.71,18.11,9,29.12,7.85,6.77-.73,12.3-3.4,16.35-8.31a23.47,23.47,0,0,0-4.21,1.88C101.34,194.4,92.2,193.89,83.66,188.17Z"/><path class="cls-1" d="M100.37,127.38c4.6-.07,9.21,0,13.81,0,4.18,0,8.36-.13,12.53.05,2.56.11,3.61-.39,3.44-2.89-.25-3.78-.06-7.58-.07-11.37,0-.67.28-1.68-.1-1.94-3.07-2.1-1.69-5-1.61-7.5.22-6.53-2.64-12.83-1.55-19.39.22-1.34-.71-1.54-2-1.54q-10.77,0-21.52,0c-1.31,0-1.88.34-2,1.59-.39,4.25.37,8.43-1.33,12.81-1.79,4.63.28,9.86-1.58,15-1.46,4-.24,8.83-.32,13.29C98.08,127,98.74,127.4,100.37,127.38Z"/><path class="cls-1" d="M152.36,39.52c-2.11-1.12-4.27-2.15-6.28-3.37-4.62-2.81-8.18-6.39-9.93-11.2-2.75-7.57-1.24-13.9,4.78-17.81,7.4-4.8,16.15-4.25,25.36-4.8-5,4.68-6.13,9.93-6.69,15.23-.84,7.94-.44,15.93-.24,23.89.11,4.59-1.71,8.08-5.33,11.07-3.13,2.6-6.32,5.14-9.41,7.76-2.42,2.06-4.43,4.4-5.18,7.39-.49,1.95-.3,3.8,1.5,5.23a8,8,0,0,0,6.63,1c-4.8-3.58-5.27-6.79-1.63-11.47a20,20,0,0,1,2-2.2c6-5.59,13.59-6.83,21.78-6.41,4.29.23,8.68.44,11.62,4.09.06-3.09-2.34-4.6-4.84-5.79-4.82-2.29-6.61-5.7-6.52-10.49.23-11.38.08-22.77.08-34.15,0-5.53,0-5.69,6.27-4.51s12.71,2.83,15.38,9a21.74,21.74,0,0,1,.12,17.27c-1.84,4.57-6.16,6.64-11.63,6.32-2.67-.16-4.44-1.93-7-2.81.49,2,2,2.81,3.44,3.54,8.47,4.16,21.57-.32,24-8.59,3.85-13-2.34-23-17.88-26.3A60.19,60.19,0,0,0,165,.22c-6.73.61-13.45,1-19.83,3.2C134.11,7.18,129.64,13.52,130.7,24,131.71,33.77,141.83,41.06,152.36,39.52Z"/><path class="cls-1" d="M129.89,81.84c-1.41-2.51-2.61-4.61-3.79-6.71a8.37,8.37,0,0,1-1.21-2.91c-1-7.43-2.15-14.85-3.23-22.28Q118,25.06,114.41.16a5.46,5.46,0,0,0-.89,2.4c-2.43,16.64-4.64,33.3-7.32,49.9-1.57,9.75-.94,20-7.44,28.78-.08.1.08.34.15.6Z"/><path class="cls-1" d="M166.07,164c0-6.92.07-13.85-.07-20.76-.09-4.46-3.47-6.19-8.12-4.39-2.65,1-4.43,2.94-6.2,4.84s-3.49,3.84-5.53,6.1c-.26-3.11.09-5.69-.63-8.21-.64-2.26-2.14-3.32-4.81-3.31a10.08,10.08,0,0,0-7.44,3.44c-2.4,2.49-4.61,5.13-7,7.8-.71-1.29-.27-2.51-.41-3.69s-.17-2.65-.37-4c-.59-3.76-3-4.7-6.44-2.35-2.24,1.55-4.22,3.39-6.32,5.11l-.08,0,0,.07,0,0c.19.64.66.58,1.22.42,3.82-1.1,3.82-1.1,3.83,2.55,0,7.31.06,14.61-.05,21.91,0,2,.84,2.21,2.68,1.7,3.88-1.1,5.47-3,5.48-6.69a30.75,30.75,0,0,0-.06-5.68c-.94-4.93,1.9-8.33,5.51-11.46,1.29-1.12,2.66-2.44,4.73-1.77,2.29.74,1.67,2.66,1.68,4.18.07,6.45.11,12.9,0,19.34,0,2.09.58,2.75,2.9,2.07,3.73-1.1,5.38-3,5.39-6.47,0-1.9.32-3.84-.06-5.68-1.06-5.08,2-8.48,5.64-11.67,1.28-1.1,2.6-2.5,4.71-1.68s1.66,2.5,1.68,4c.06,5.31,0,10.62.05,15.93.05,3.79,1.34,5.52,4.13,5.87a7.65,7.65,0,0,0,8.2-4.37C166.07,168.24,166.07,168.24,166.07,164Z"/><path class="cls-1" d="M189.17,141.37c-1.17,1.22-2,2.72-3.86,3.69-.09-1.6-.11-2.93-.25-4.24-.35-3.19-1.82-4-5.11-2.56-3.73,1.59-5.74,4.66-8.11,7.4,5.06-1.08,5.28-.93,5.28,3.5,0,10.71-.13,21.43.06,32.15.09,5.08-.07,9.89-5.28,13.57,5.86-2.64,11.54-5.18,17.87-1.74h0a.69.69,0,0,0,.92.32l-.48-.73c-1.79-2-4.7-3.43-4.82-6.19-.23-5.55-.06-11.11-.06-17.32,5.18,4.37,9.22,1.52,13.21-.91a28.14,28.14,0,0,0,4.84-3.72,16.83,16.83,0,0,0,.38-23.3C199.1,136.5,193.8,136.54,189.17,141.37Zm8.18,22.33c-1.77,2.85-4.5,4.1-7.32,3.48-3-.65-4.75-2.88-4.8-6.23,0-1.43,0-2.85,0-4.27-.18-3.78-.62-7.51,3.68-10.19,4.65-2.89,8.61-2,10,2.86S200.2,159.12,197.35,163.7Z"/><path class="cls-1" d="M320.49,40.38c-.52,5-.24,9,5.35,10.34,2.66.62,6.39-2,8-5-.43-.32-.79,0-1.16.11-4,1.63-4.07,1.58-4.07-2.15q0-9.67,0-19.35c0-6.73,0-6.63-7.73-6.71-17.36-.18-26.15,13.22-22.23,27.43,1.75,6.35,6.94,7.52,12.51,3.22C314.09,46,316.86,43.44,320.49,40.38Zm-13.64-2c-3.25-6.49,1.77-16.16,9.42-18.16,3.61-.93,4.06-.64,4.07,2.61V33c0,4.37-3.44,7.63-8.43,8A4.7,4.7,0,0,1,306.85,38.36Z"/><path class="cls-1" d="M277.89,30.28a7,7,0,0,1-6.18,2.18c-5.21-.64-8.14,2.27-11.44,5.83,3.21-1,5.81-.58,9.11-.67-3.74,3.33-6.11,6.6-6.59,10.75-.16,1.38.23,1.87,1.83,1.85,7.61-.06,15.21,0,22.82,0A5.17,5.17,0,0,0,292,48c1.95-3.09,2.4-6.45,2.22-10.75-.81,1.21-1.18,1.66-1.43,2.16-1.95,3.85-5.34,5.41-10,5.27s-9.42-.09-14.14,0c-2.27.05-2.45-.85-1.35-2.15,2.31-2.73,4.62-5.49,9.28-4.9,5.81.75,9.84-1.67,13-6.31a23.9,23.9,0,0,1-10,1.08l-.68-.77,16-14c-7.51,0-14.69,0-21.86,0a15.6,15.6,0,0,0-6.73,1.71c-2.79,1.37-4.24,4.34-3.39,6.75.8,2.25,3.19,3.35,6.89,3.1a13.93,13.93,0,0,1-2.43-1.45,2.35,2.35,0,0,1,.95-4.18c5.51-1,11.07-.35,16.78,0C282.81,26.09,280.18,28.05,277.89,30.28Z"/><path class="cls-1" d="M242.32,30.43a6.37,6.37,0,0,1-5.6,2c-5.33-.68-8.53,2.08-11.7,5.79,3-.92,5.65-.54,8.91-.62-3.6,3.31-6.06,6.53-6.51,10.69-.14,1.29.06,1.92,1.76,1.9,7.71-.06,15.43,0,23.14-.07a5,5,0,0,0,4.48-2.36,16.51,16.51,0,0,0,2-9.84c-.37.14-.5.15-.55.21a6.06,6.06,0,0,0-.67,1c-2,4.08-5.52,5.75-10.49,5.56-4.49-.17-9,0-13.5-.06-.77,0-1.89.44-2.25-.51-.29-.73.33-1.45.84-2.05,2.47-2.92,5.25-4.84,9.91-4.52,6,.4,9.32-1.67,11.6-6a23.51,23.51,0,0,1-9.88.81l15.79-14-.43-.65c-7.37,0-14.75,0-22.12,0a14.47,14.47,0,0,0-5.82,1.51c-3,1.38-4.67,4.35-3.72,6.86,1.1,2.89,3.87,3.2,6.72,3.29-.68-.63-1.59-1-2.24-1.56a2.4,2.4,0,0,1,1.17-4.3c5.43-.84,10.9-.31,16.53,0C247.37,26.11,244.71,28.16,242.32,30.43Z"/><path class="cls-1" d="M89.51,141.57c-6.8,4.72-9,11.23-7.94,18.48,1.52,10.59,12.67,15,23,9.31a19.76,19.76,0,0,0,6.56-5.81,6.27,6.27,0,0,0-3.47,1.24,15,15,0,0,1-13.21.19c-3-1.32-3.07-2.47-.89-4.41,5.59-5,11.17-9.94,16.82-14.84.58-.51.92-1.85,2.31-1.12a11.88,11.88,0,0,0-2.13-2.5A17.41,17.41,0,0,0,89.51,141.57Zm11.37,8.48c-1.92,4.07-5.89,6.69-9.32,9.65-1,.83-1.19-.13-1.39-.76a18.82,18.82,0,0,1,1.07-12.53c1.56-2.86,4-3.87,6.7-2.87A5,5,0,0,1,100.88,150.05Z"/><path class="cls-1" d="M148.12,92.18a3.71,3.71,0,0,0-2.44,3q-2.44,15.18-5,30.34c-.26,1.46.22,1.84,1.76,1.82,4-.05,7.92-.08,11.87,0,1.8,0,2.08-.69,2.08-2.06-.05-12.21,0-24.43,0-37.26C153.27,89.61,150.75,91,148.12,92.18Z"/><path class="cls-1" d="M193,127.37c4.06,0,8.12,0,12.18,0,1.31,0,1.9-.24,1.65-1.65q-2.7-15.57-5.22-31.16a2.48,2.48,0,0,0-1.52-2c-2.8-1.37-5.55-2.8-8.93-4.51,0,12.9,0,25.27,0,37.65C191.12,126.94,191.62,127.38,193,127.37Z"/><path class="cls-1" d="M328.39,151.81c-1.65-.87-3.38-1.63-5.1-2.39-2.49-1.09-5.18-1.83-7.46-3.28-1.17-.74-2.2-1.59-1.75-3a3.4,3.4,0,0,1,3.15-2.47,34,34,0,0,1,4.16-.1c3.79.13,6.33,2.38,9,4.6,1-2.57,1.89-4.83,2.95-7.54-3.55,1.52-6.61.36-9.74-.08-10.25-1.45-16.37,4.23-13.49,12.45a9,9,0,0,0,4.88,5c3.83,1.88,7.74,3.63,11.56,5.53,1.94,1,3,2.41,2.3,4.5s-2.33,2.86-4.52,3a13.26,13.26,0,0,1-10-3.13,24.37,24.37,0,0,1-5.23-6.6,22.77,22.77,0,0,0,.5,7.62q.66,3.8,5,4.48a29.17,29.17,0,0,0,14.19-1.12,7.38,7.38,0,0,0,4.78-4.3C335.79,159.65,333.86,154.71,328.39,151.81Z"/><path class="cls-1" d="M274.17,138.67a15.49,15.49,0,0,0-5.89,4.72c-1.71,2.09-3.43,4.17-5.5,6.67-.22-3.47-.18-6.31-.64-9.08-.51-3.14-2.79-3.91-5.75-2.06a25.35,25.35,0,0,0-6.72,6.19c4.77-.69,4.77-.69,4.77,3.67,0,6.82.1,13.65-.05,20.48,0,2.46,1,2.51,3,1.6,3.29-1.49,6-3.21,5.24-7.14-.34-1.75.25-3.64-.11-5.39-1.12-5.36,2.56-8.66,6.25-12a3.38,3.38,0,0,1,3.44-1,2.73,2.73,0,0,1,1.84,3c-.07,1.73-.36,3.46-.62,5.73,3.26-3,6.57-5.32,8.42-8.71a4.71,4.71,0,0,0-1.1-6.29C278.77,137.37,276.42,137.72,274.17,138.67Z"/><path class="cls-1" d="M302.88,164.31c-.63.35-1.23.76-1.88,1.08-2.89,1.41-3.86,1-3.88-1.92,0-6.63.05-13.25-.05-19.88,0-1.62.41-2.36,2.39-2.53s3.74-.76,4.36-3.1a32.21,32.21,0,0,0-3.56,0c-2.47.29-3.4-.46-3.2-2.76.23-2.87.05-5.77.05-8.66l-.48-.21a7.2,7.2,0,0,0-.42.7c-2.09,4.66-4.77,8.9-10,11.36a4.59,4.59,0,0,0-1.38,1.18c-.65.74-.74,1.66.62,1.44,4.42-.72,3.58,2,3.6,4.12,0,2-.05,4,0,6,.15,5.39-.46,10.8.4,16.17.61,3.78,3,5,7.05,3.65a14.53,14.53,0,0,0,8-7.35C303.74,163.43,303.4,164,302.88,164.31Z"/><path class="cls-1" d="M222.28,45.86c-3.52,1.54-4.42,1.06-4.46-2.51,0-5.49,0-11,0-16.47a33.31,33.31,0,0,0-.22-5.38c-.65-4-3.84-5.41-7.89-3.44a12.5,12.5,0,0,0-5.08,4.18c-.17.21-.51.56-.47.6.5.51.59-.16.88-.28,4.67-2.17,4.79-2.1,4.79,2.58,0,6.53,0,13.06,0,19.59,0,3.51,1.72,5.73,4.46,6.05A7.68,7.68,0,0,0,222.28,45.86Z"/><path class="cls-1" d="M253.52,88c-.06,1.17-.17,1.77-1.8,2-7.66,1.22-12,7.67-9.79,14.3,1.18,3.56,3.71,4.27,6.87,1.87,1.48-1.13,2.87-2.36,4.81-4-.35,2.73.08,4.72,2.57,5.26,2.1.45,3.41-1.07,4.8-2.8-2.71,1.58-3.17.66-3.13-1.43.1-5.77.08-11.55,0-17.32,0-1.55.29-2.55,2.31-2.63a3.88,3.88,0,0,0,3.49-2.14C256.47,80.19,253.87,82,253.52,88Zm-3.4,14.17c-1.89.51-3.09.15-3.78-1.51-1.24-3,.53-7.29,3.67-8.91,2.62-1.36,3.46-.93,3.48,1.77,0,.76,0,1.51,0,3C253.68,98.44,254,101.11,250.12,102.16Z"/><path class="cls-1" d="M286.2,106.18c-2.66-.68-3.91-2.74-5.42-4.72-.43,5.06,1.1,6.47,6.4,6.06.63,0,1.26-.19,1.89-.28,2.55-.39,4.42-1.47,4.81-3.9s-.18-4.57-2.82-5.84c-2.06-1-4.2-1.88-6.27-2.86-.85-.4-1.74-.91-1.41-2s1.25-1.22,2.25-1.32a8.86,8.86,0,0,1,6.21,2.11l1.54-3.63c-2.25.4-4.2-.31-6.19-.24-2.61.1-5.25.34-6.16,3.11-.87,2.61.16,5.14,2.81,6.64,1.53.86,3.18,1.55,4.76,2.33s3.21,1.62,2.13,3.5C289.75,106.87,287.9,106.61,286.2,106.18Z"/><path class="cls-1" d="M248.88,165.87c-.08,0-.4.22-.61.35h0c-.39.13-.8.24-1.18.4-3.64,1.59-3.9,1.46-3.91-2.13,0-5.87,0-11.74,0-17.62,0-2.72,1.35-6.44-.5-7.93-2.29-1.83-6.53-.69-9.89-.52-15.24.81-25.63,16.88-18.85,29,2.55,4.56,6.35,5.36,10.91,2.24,1.43-1,2.7-2.16,4.08-3.2,2-1.49,3.45-3.47,6-4.77,0,1.55-.06,2.78,0,4,.17,2.63,1.82,4.46,4.4,5.51,2.35,1,4.35-.12,6.15-1.42a11.27,11.27,0,0,0,3.2-3.14h0C248.88,166.39,249.41,166.19,248.88,165.87Zm-13.91-23c-.16,2.17,0,4.36,0,6.54v4.56c0,4.23-3.81,7.67-8.68,7.86-2,.09-3.63-.58-4.48-2.2-3.42-6.55,1-17.46,10.5-18.94C234.46,140.31,235.11,140.93,235,142.83Z"/><path class="cls-1" d="M271,99.8l.64-.58.94-.78c1.37-1.19,2.77-2.36,4.12-3.57,2.43-2.16,2.32-2.75-.66-4.29a6.33,6.33,0,0,0-2.75-.66c-4.17-.18-7.81,1.66-9.52,5.12-1.83,3.68-2.08,7.44.9,10.75s10.5,2.19,12.62-2.3a8.93,8.93,0,0,1-7.28.75c-1.63-.54-2.26-1.37-.93-2.71l-.55-.57c-.36.18-.82.52-1.12.11-1.14-1.52-.39-6.53,1.12-7.82a2.45,2.45,0,0,1,2.62-.56,2.54,2.54,0,0,1,1.72,1.9c.3,1.23-.38,2.2-.95,3.21h0l-.92,1h0l-.59.54h0l-.64.57h0l-.64.56-.6.54.55.57.65-.58.63-.57h0l.64-.58Z"/></g></g></svg>