<svg xmlns="http://www.w3.org/2000/svg" width="24" height="24" viewBox="0 0 24 24">
  <g fill="none">
    <rect width="24" height="24"/>
    <path fill="#FFF" d="M16.760274,19.3837039 C16.760274,19.3837039 16.1438356,18.6474026 15.630137,17.9967176 C17.8732877,17.363156 18.7294521,15.9590464 18.7294521,15.9590464 C18.0273973,16.4213752 17.359589,16.7467176 16.760274,16.9693204 C15.9041096,17.3289094 15.0821918,17.5686354 14.2773973,17.7056218 C12.6335616,18.0138409 11.1267123,17.9282245 9.84246575,17.6884985 C8.86643836,17.5001423 8.02739726,17.2261697 7.32534247,16.9521971 C6.93150685,16.7980875 6.50342466,16.6097313 6.07534247,16.3700053 C6.0239726,16.3357587 5.97260274,16.3186354 5.92123288,16.2843889 C5.8869863,16.2672656 5.86986301,16.2501423 5.85273973,16.233019 C5.54452055,16.0617861 5.37328767,15.9419231 5.37328767,15.9419231 C5.37328767,15.9419231 6.19520548,17.3117861 8.36986301,17.9624711 C7.85616438,18.613156 7.22260274,19.3837039 7.22260274,19.3837039 C3.43835616,19.2638409 2,16.7809642 2,16.7809642 C2,11.2672656 4.46575342,6.7980875 4.46575342,6.7980875 C6.93150685,4.94877244 9.27739726,5 9.27739726,5 L9.44863014,5.20562175 C6.36643836,6.09603271 4.94520548,7.44877244 4.94520548,7.44877244 C4.94520548,7.44877244 5.32191781,7.24329298 5.95547945,6.95219709 C7.78767123,6.14740257 9.24315068,5.92479983 9.84246575,5.87342997 C9.94520548,5.85630668 10.0308219,5.83918339 10.1335616,5.83918339 C11.1780822,5.70219709 12.359589,5.66795052 13.5924658,5.80493682 C15.2191781,5.99329298 16.9657534,6.47274504 18.7465753,7.44877244 C18.7465753,7.44877244 17.3938356,6.16452586 14.4828767,5.2741149 L14.7226027,5 C14.7226027,5 17.0684932,4.94877244 19.5342466,6.7980875 C19.5342466,6.7980875 22,11.2672656 22,16.7809642 C22,16.7809642 20.5445205,19.2638409 16.760274,19.3837039 Z M8.76369863,11.4042519 C7.78767123,11.4042519 7.01712329,12.2604163 7.01712329,13.3049368 C7.01712329,14.3494574 7.80479452,15.2056218 8.76369863,15.2056218 C9.73972603,15.2056218 10.510274,14.3494574 10.510274,13.3049368 C10.5273973,12.2604163 9.73972603,11.4042519 8.76369863,11.4042519 Z M15.0136986,11.4042519 C14.0376712,11.4042519 13.2671233,12.2604163 13.2671233,13.3049368 C13.2671233,14.3494574 14.0547945,15.2056218 15.0136986,15.2056218 C15.989726,15.2056218 16.760274,14.3494574 16.760274,13.3049368 C16.760274,12.2604163 15.989726,11.4042519 15.0136986,11.4042519 Z"/>
  </g>
</svg>
