<svg xmlns="http://www.w3.org/2000/svg" width="24" height="24" viewBox="0 0 24 24">
  <path fill="#FFF" d="M9.61438312,18 L0.993462,18 C0.444627375,18 0,17.555097 0,17.0064761 L0,0.993454125 C0,0.44469375 0.444697125,0 0.993462,0 L17.0066081,0 C17.5552331,0 18,0.44469375 18,0.993454125 L18,17.0064761 C18,17.5551668 17.5551634,18 17.0066081,18 L12.4197394,18 L12.4197394,11.0294081 L14.7594454,11.0294081 L15.1097831,8.31284475 L12.4197394,8.31284475 L12.4197394,6.57849038 C12.4197394,5.79198263 12.638142,5.25600375 13.7659838,5.25600375 L15.2044916,5.25537487 L15.2044916,2.82565912 C14.9557073,2.792553 14.101794,2.71858875 13.108332,2.71858875 C11.0343128,2.71858875 9.61438312,3.98457225 9.61438312,6.30945338 L9.61438312,8.31284475 L7.26867075,8.31284475 L7.26867075,11.0294081 L9.61438312,11.0294081 L9.61438312,18 L9.61438312,18 Z" transform="translate(3 3)"/>
</svg>
