<svg xmlns="http://www.w3.org/2000/svg" width="29" height="26" viewBox="0 0 29 26">
  <path fill="#7E8E9F" d="M10.7814986,24.9495442 C7.50167454,24.162726 3.84082157,21.9559303 3.84082157,20.7646189 C3.84082157,19.1703328 7.554721,14.7069389 11.6257137,11.4090441 L13.9157684,9.553295 L14.9430585,10.2250209 C16.5567708,11.2799828 21.7190974,16.300314 22.8741519,17.9383292 C24.7482447,20.5945617 24.6647935,21.1876362 22.1787257,22.8666473 C19.1803066,24.8927572 14.2777135,25.7888979 10.7814986,24.9495442 Z M2.18364145,19.3938052 C0.0523125781,16.4625913 -0.632354672,11.6361648 0.637098959,8.50281902 C1.42422465,6.56205131 3.27910905,3.91925243 4.2908056,3.29897909 C5.02090254,2.85097038 5.16073576,2.85549572 6.16534398,3.36233386 C7.14982703,3.93572418 8.07671913,4.59157013 8.93462164,5.32180631 L10.618742,6.73401425 L8.8144424,8.82532495 C5.19359978,13.0269528 2.40305717,18.2715208 2.94273606,19.8644407 C3.21531418,20.6678394 3.02392954,20.5492755 2.18364145,19.3938052 Z M24.9815146,19.4270761 C24.9454392,16.9843745 22.8971941,13.2940161 19.1894808,8.98884847 L17.3966624,6.90751639 L19.0039502,5.53088493 C19.8624387,4.79032312 20.7974535,4.13100334 21.795284,3.56259357 L22.979008,2.97213622 L24.2906063,4.16537716 C25.2238065,5.10485252 26.011673,6.16151214 26.6313198,7.30466209 C27.5177439,8.9816331 27.6752516,9.63342105 27.7705937,12.0162952 C27.8994344,15.2121005 27.3776296,17.2750936 25.9346137,19.2890822 L25.0005186,20.5926581 L24.9834472,19.427978 L24.9815146,19.4270761 Z M12.4209043,3.54192689 C11.3686741,3.01212539 10.2586297,2.59370679 9.11064926,2.29416394 C7.99924296,2.00773652 7.15532547,1.67259485 7.23498921,1.54926765 C7.31465295,1.42594045 8.40921976,1.0106361 9.66635241,0.624313648 C12.9565296,-0.381419672 16.8513092,-0.159739029 19.7528827,1.20055999 C20.8821,1.729942 21.5015989,2.09252397 21.1291872,2.00650325 C20.3001661,1.81472945 16.6871241,2.85684429 15.2408711,3.70502712 C13.9711088,4.44961509 14.0378191,4.4533149 12.4209043,3.54192689 Z" transform="translate(.684 .526)"/>
</svg>
