<svg xmlns="http://www.w3.org/2000/svg" width="36" height="28" viewBox="0 0 36 28">
  <path fill="#7E8E9F" fill-rule="evenodd" d="M13.0814708,0 C15.5439819,0.462517382 19.1275092,1.55711938 21.0559497,2.21280182 C25.9553657,3.92061017 27.6164384,6.04306603 27.6164384,10.8239855 C27.6164384,15.4848932 24.7781491,17.2530445 21.1700133,15.4865787 L21.1700133,6.80190468 C21.1700133,5.80694853 20.993387,4.88877454 20.1009154,4.59999956 L20.0403509,4.5816864 C19.317061,4.34267414 18.8704503,5.02599975 18.8704503,6.04306603 L18.8704503,27.7894737 L13.0814708,25.9272681 L13.0814708,0 Z M32.7251861,18.1805457 C35.4382339,19.0492018 35.7432452,20.329256 35.0542434,21.2089585 C34.3635894,22.0906695 32.6759481,22.7203197 32.6759481,22.7203197 L20.1067051,27.2932331 L20.1067051,23.9220442 L29.3561822,20.5809821 C30.4063729,20.200715 30.5682966,19.6621148 29.7157189,19.3799271 C28.8628107,19.0974046 27.3215616,19.1780775 26.2710404,19.5583447 L20.1067051,21.75894 L20.1067051,18.2605491 L20.6165187,18.0862105 C21.1023611,17.9272325 22.6788778,17.4498762 24.7456533,17.2164881 C27.2508439,16.94133 30.318141,17.2546487 32.7251861,18.1805457 Z M12.112473,15.6315789 L12.112473,19.0345278 L6.16638554,21.199551 C5.11376378,21.5821091 4.95510871,22.1266483 5.80800394,22.4088522 C6.66255527,22.6930768 8.20803454,22.6129281 9.2606563,22.2283495 L12.112473,21.1759778 L12.112473,24.2236461 L11.5454218,24.3186121 L11.5454218,24.3186121 C8.69194908,24.7924319 5.65067375,24.5954279 2.65742553,23.5912128 C-0.134440047,22.7927574 -0.600468623,21.1298419 0.672415398,20.1690687 C1.85023886,19.2820457 3.84949152,18.6176203 3.84949152,18.6176203 L12.112473,15.6315789 Z" transform="translate(0 .263)"/>
</svg>
