<svg xmlns="http://www.w3.org/2000/svg" width="29" height="29" viewBox="0 0 29 29">
  <path fill="#7E8E9F" d="M13.8798123,0 C21.5617661,0 27.7894737,6.22090626 27.7894737,13.8947368 C27.7894737,21.5684482 21.5617661,27.7894737 13.8798123,27.7894737 C7.58834711,27.7894737 2.27246854,23.6174746 0.55399853,17.8914118 L0.606,18.059 L5.83850046,20.2311375 C6.10329042,21.4211101 6.91505875,22.4648827 8.11269113,22.966996 C10.0721607,23.7902701 12.3314554,22.8519533 13.1465605,20.8806492 C13.3586784,20.365354 13.4575874,19.8248931 13.4432873,19.2856306 L18.3041256,15.7924078 C18.3434508,15.7936062 18.3839677,15.7948046 18.423293,15.7948046 C21.3321692,15.7948046 23.6964504,13.4100659 23.6964504,10.4815109 C23.6964504,7.55271627 21.3321692,5.17013464 18.423293,5.17013464 C15.5156084,5.17013464 13.1501355,7.55271627 13.1501355,10.4815109 C13.1501355,10.5049988 13.1501355,10.5284867 13.1513272,10.5505365 L9.7541029,15.5131897 C9.20378785,15.4880241 8.65156611,15.5850913 8.12794455,15.8019947 C7.8971173,15.8966652 7.68082847,16.0129063 7.47788638,16.1471227 L0.062,13.076 L0,12.9716015 C0.469385228,5.83484761 6.33196555,0.168807888 13.5554755,0.00370307637 Z M10.7361614,16.6264672 C11.4693985,16.9332476 12.0383036,17.5108577 12.3397972,18.2490482 C12.6412907,18.9872386 12.640099,19.8021242 12.3350305,20.537918 C11.7041582,22.061035 9.96359919,22.7836467 8.45064988,22.1497137 C7.75268641,21.8573136 7.22572817,21.3216462 6.92173213,20.6829197 L8.63833853,21.3983413 C9.7541029,21.8657021 11.0341991,21.3336298 11.4979986,20.2119637 C11.9632282,19.0890993 11.4354358,17.7996627 10.3202672,17.3323019 L8.54574546,16.5929131 C9.23048134,16.3316703 10.0088828,16.3220835 10.7361614,16.6264672 Z M18.423293,6.94287028 C20.3609549,6.94287028 21.9375396,8.53117814 21.9375396,10.4815109 C21.9375396,12.4334015 20.3609549,14.0212301 18.423293,14.0212301 C16.4868227,14.0212301 14.910238,12.4334015 14.910238,10.4815109 C14.910238,8.53117814 16.4868227,6.94287028 18.423293,6.94287028 Z M18.4292513,7.81683506 C16.9730257,7.81683506 15.7908851,9.00776637 15.7908851,10.4761183 C15.7908851,11.94459 16.9730257,13.1344428 18.4292513,13.1344428 C19.8866686,13.1344428 21.0688092,11.94459 21.0688092,10.4761183 C21.0688092,9.00776637 19.8866686,7.81683506 18.4292513,7.81683506 Z" transform="translate(.316 .526)"/>
</svg>
