<svg xmlns="http://www.w3.org/2000/svg" width="30" height="30" viewBox="0 0 30 30">
  <path fill="#7E8E9F" d="M11.6718648,26.7212476 L7.44249513,26.7212476 C6.08252112,26.7212476 4.79727096,26.1832359 3.84080572,25.2118259 C2.86939571,24.2553606 2.33138402,22.9701105 2.33138402,21.6101365 L2.33138402,7.44249513 C2.33138402,6.08252112 2.86939571,4.79727096 3.84080572,3.84080572 C4.79727096,2.86939571 6.08252112,2.34632878 7.44249513,2.34632878 L11.6718648,2.34632878 L11.6718648,26.7212476 Z M13.7940221,0 L7.44249513,0 C3.33268356,0 0,3.33268356 0,7.44249513 L0,21.6101365 C0,25.719948 3.33268356,29.0526316 7.44249513,29.0526316 L13.7940221,29.0526316 C13.9135802,29.0526316 14.0181936,28.962963 14.0181936,28.8434048 L14.0181936,0.209226771 C14.0181936,0.089668616 13.9135802,0 13.7940221,0 M4.51332034,8.71280052 C4.51332034,10.2222222 5.73879142,11.4476933 7.24821313,11.4476933 C8.75763483,11.4476933 9.98310591,10.2222222 9.98310591,8.71280052 C9.98310591,7.20337882 8.75763483,5.97790773 7.24821313,5.97790773 C5.73879142,5.97790773 4.51332034,7.20337882 4.51332034,8.71280052 M22.6712151,13.0467836 C24.2852502,13.0467836 25.6003899,14.3619233 25.6003899,15.9759584 C25.6003899,17.6049383 24.2852502,18.920078 22.6712151,18.920078 C21.0422352,18.920078 19.7270955,17.6049383 19.7270955,15.9759584 C19.7270955,14.3619233 21.0422352,13.0467836 22.6712151,13.0467836 M17.1267057,29.0526316 L21.6101365,29.0526316 C25.719948,29.0526316 29.0526316,25.719948 29.0526316,21.6101365 L29.0526316,7.44249513 C29.0526316,3.33268356 25.719948,0 21.6101365,0 L17.1117609,0 C17.0071475,0 16.9174789,0.0747238467 16.9174789,0.179337232 L16.9174789,28.8434048 C16.9174789,28.962963 17.0071475,29.0526316 17.1267057,29.0526316" transform="translate(.368)"/>
</svg>
