<svg xmlns="http://www.w3.org/2000/svg" width="24" height="24" viewBox="0 0 24 24">
  <path fill="#FFF" d="M9.000018,0 C6.55574662,0 6.24925725,0.0103605 5.28931162,0.054160125 C4.33136663,0.097852125 3.67712437,0.250007625 3.104658,0.472506375 C2.5128285,0.70247175 2.01092025,1.01021137 1.510548,1.510548 C1.01021137,2.01092025 0.70247175,2.5128285 0.472506375,3.104658 C0.250007625,3.67712438 0.097852125,4.33136662 0.054160125,5.28931162 C0.0103605,6.24925725 0,6.55574662 0,9.000018 C0,11.4442534 0.0103605,11.7507428 0.054160125,12.7106884 C0.097852125,13.6686334 0.250007625,14.3228756 0.472506375,14.895342 C0.70247175,15.4871715 1.01021137,15.9890797 1.510548,16.489452 C2.01092025,16.9897886 2.5128285,17.2975283 3.104658,17.5275296 C3.67712437,17.7499924 4.33136663,17.9021479 5.28931162,17.9458399 C6.24925725,17.9896395 6.55574662,18 9.000018,18 C11.4442534,18 11.7507428,17.9896395 12.7106884,17.9458399 C13.6686334,17.9021479 14.3228756,17.7499924 14.895342,17.5275296 C15.4871715,17.2975283 15.9890798,16.9897886 16.489452,16.489452 C16.9897886,15.9890797 17.2975283,15.4871715 17.5275296,14.895342 C17.7499924,14.3228756 17.9021479,13.6686334 17.9458399,12.7106884 C17.9896395,11.7507428 18,11.4442534 18,9.000018 C18,6.55574662 17.9896395,6.24925725 17.9458399,5.28931162 C17.9021479,4.33136662 17.7499924,3.67712438 17.5275296,3.104658 C17.2975283,2.5128285 16.9897886,2.01092025 16.489452,1.510548 C15.9890798,1.01021137 15.4871715,0.70247175 14.895342,0.472506375 C14.3228756,0.250007625 13.6686334,0.097852125 12.7106884,0.054160125 C11.7507428,0.0103605 11.4442534,0 9.000018,0 Z M9.000018,1.62161888 C11.4030975,1.62161888 11.6877585,1.63080038 12.6367725,1.67409975 C13.5142635,1.71411225 13.9908067,1.86072975 14.3079424,1.98398287 C14.7280391,2.14724888 15.0278482,2.34227475 15.3427687,2.65723125 C15.6577252,2.97215175 15.8527511,3.27196088 16.0160171,3.69205762 C16.1392702,4.00919325 16.2858877,4.4857365 16.3259003,5.3632275 C16.3691996,6.3122415 16.3783811,6.5969025 16.3783811,9.000018 C16.3783811,11.4030975 16.3691996,11.6877585 16.3259003,12.6367725 C16.2858877,13.5142635 16.1392702,13.9908068 16.0160171,14.3079424 C15.8527511,14.7280391 15.6577252,15.0278483 15.3427687,15.3427688 C15.0278482,15.6577252 14.7280391,15.8527511 14.3079424,16.0160171 C13.9908067,16.1392702 13.5142635,16.2858878 12.6367725,16.3259003 C11.6879014,16.3691996 11.403276,16.3783811 9.000018,16.3783811 C6.596724,16.3783811 6.31213425,16.3691996 5.3632275,16.3259003 C4.4857365,16.2858878 4.00919325,16.1392702 3.69205762,16.0160171 C3.27196088,15.8527511 2.97215175,15.6577252 2.65723125,15.3427688 C2.34231037,15.0278483 2.14724888,14.7280391 1.98398287,14.3079424 C1.86072975,13.9908068 1.71411225,13.5142635 1.67409975,12.6367725 C1.63080037,11.6877585 1.62161888,11.4030975 1.62161888,9.000018 C1.62161888,6.5969025 1.63080037,6.3122415 1.67409975,5.3632275 C1.71411225,4.4857365 1.86072975,4.00919325 1.98398287,3.69205762 C2.14724888,3.27196088 2.34227475,2.97215175 2.65723125,2.65723125 C2.97215175,2.34227475 3.27196088,2.14724888 3.69205762,1.98398287 C4.00919325,1.86072975 4.4857365,1.71411225 5.3632275,1.67409975 C6.3122415,1.63080038 6.5969025,1.62161888 9.000018,1.62161888 Z M9.000018,4.37838112 C6.447534,4.37838112 4.37838112,6.447534 4.37838112,9.000018 C4.37838112,11.552466 6.447534,13.6216189 9.000018,13.6216189 C11.552466,13.6216189 13.6216189,11.552466 13.6216189,9.000018 C13.6216189,6.447534 11.552466,4.37838112 9.000018,4.37838112 Z M9.000018,12 C7.34313787,12 6,10.6568621 6,9.000018 C6,7.34313788 7.34313787,6 9.000018,6 C10.6568621,6 12,7.34313788 12,9.000018 C12,10.6568621 10.6568621,12 9.000018,12 Z M14.8842315,4.195788 C14.8842315,4.79226188 14.4006859,5.2757715 13.804212,5.2757715 C13.2077738,5.2757715 12.7242285,4.79226188 12.7242285,4.195788 C12.7242285,3.59931413 13.2077738,3.1157685 13.804212,3.1157685 C14.4006859,3.1157685 14.8842315,3.59931413 14.8842315,4.195788 Z" transform="translate(3 3)"/>
</svg>
