<svg xmlns="http://www.w3.org/2000/svg" width="151" height="56" viewBox="0 0 151 56">
  <g fill="#7E8E9F">
    <path d="M4.71157167,21.7777778 L5.62660627,25.3456582 L7.59298568,24.6903114 L9.00654024,29.6363189 L10.567207,35.1835372 L8.29768475,38.3252513 L6.38379054,39.3234008 L9.38089748,42.0628814 L6.81176425,44.8798586 L9.97833695,44.0681495 L13.3392849,44.9762697 L10.3318846,46.6828161 L14.6533669,45.962751 L19.6779584,50.2159659 L24.7023822,45.962751 L29.0237462,46.6827351 L26.0164642,44.9762697 L29.3774122,44.0681495 L32.5438665,44.8798586 L29.9748516,42.0628814 L32.9718402,39.3234008 L31.0580644,38.3252513 L28.7885433,35.1835389 L31.712994,24.6903114 L33.7341771,33.6345982 L35.3539948,31.6913455 L35.9517633,29.6424123 L36.3407255,24.1982594 L37.7222222,34.1430064 L36.0825556,38.9746583 L36.0825573,45.6301025 L30.5517372,50.7275971 L29.1140106,53.4991544 L30.0591377,49.3418663 L21.4697373,53.5931094 L13.4449903,56 L15.9730615,53.5626801 L11.1502035,52.1246491 L8.30010408,49.2753273 L3.79480908,46.9365808 L0.697652168,43.2715655 L0,33.7392209 L2.33952809,40.2364692 L3.14058008,41.4246899 L2.40670511,38.6121947 L3.78675714,35.7666 L2.75410056,31.2926106 L3.79195987,26.1914311 L4.71157167,21.7777778 Z M16.2035219,39.2799428 C17.6581561,40.019682 18.4951515,41.5565326 18.73587,43.8491808 L18.8611111,45.1111111 L14.8744341,42.1560822 L11.0023148,40.9443349 L11.6021597,40.3586486 C13.1069512,38.889376 14.6808854,38.5056217 16.2035219,39.2799428 Z M28.3889679,40.273294 L28.4345375,40.3167812 L28.4777014,40.3586116 L29.0775463,40.9443025 L25.2053508,42.1560592 L21.21875,45.1111111 L21.3368791,43.9188771 C21.5678637,41.587634 22.4070117,40.0271145 23.8763392,39.2798974 C25.3687333,38.5209498 26.9112496,38.8745818 28.3889679,40.273294 Z M30.6493056,0 L26.8701855,5.23055573 L27.4689266,12.1437697 L25.1620995,16.1100838 L25.944705,21.5186757 L28.4102165,16.8315448 L28.4102165,18.1782241 L27.9188757,21.4030475 L29.302915,25.017174 L29.0221182,27.8697692 L26.551709,31.1111111 L24.0848003,28.3656589 L22.6191498,25.4541208 L23.9742807,20.5629215 L21.5531703,25.2024168 L18.3122145,27.2276864 L17.4053175,24.6585728 L16.012184,28.3656589 L13.5452753,31.1111111 L11.6342633,28.709468 L8.90074282,25.017174 L8.64467593,24.3974351 L14.6942201,20.4880601 L18.985521,14.0460843 L23.6094763,11.8487199 L24.7960259,4.94782427 L30.6493056,0 Z"/>
    <path d="M49.8637729-1.17239551e-13C51.6883067-1.17239551e-13 53.3287133.549729516 54.6008654 1.64918855L54.6008654 1.64918855 52.7930704 4.1850376C51.8222175 3.40477636 50.5668043 3.01464573 49.6796456 3.01464573 48.8427035 3.01464573 48.6585762 3.33384351 48.6585762 3.63530809 48.6585762 4.09637155 49.1105249 4.25597044 50.2989828 4.46876897 52.1402555 4.80569996 54.8686869 5.37316269 54.8686869 8.10407706 54.8686869 10.710859 53.044153 12.2181818 50.0479001 12.2181818 47.6709845 12.2181818 46.0473167 11.473387 44.8588589 10.3384615L44.8588589 10.3384615 46.6164374 7.67848001C47.4533795 8.5296741 48.7087927 9.20353609 50.2152886 9.20353609 50.8513646 9.20353609 51.4539629 8.97300435 51.4539629 8.51194089 51.4539629 8.05087742 50.9852753 7.82034569 49.8805117 7.60754717 48.039239 7.25288297 45.2271134 6.7918195 45.2271134 3.8303734 45.2271134 1.82652065 46.8005646-1.17239551e-13 49.8637729-1.17239551e-13zM61.1248294-9.23705556e-14C64.6556934-9.23705556e-14 67.3809719 2.47905138 67.3809719 6.10909091 67.3809719 9.73913043 64.6556934 12.2181818 61.1248294 12.2181818 57.5939654 12.2181818 54.8686869 9.73913043 54.8686869 6.10909091 54.8686869 2.47905138 57.5939654-9.23705556e-14 61.1248294-9.23705556e-14zM72.0335509-1.17239551e-13L72.0335509 6.94582943C72.0335509 8.09746954 72.5810853 9.01518276 73.9582175 9.01518276 75.3187577 9.01518276 75.8662922 8.09746954 75.8662922 6.94582943L75.8662922 6.94582943 75.8662922-1.17239551e-13 79.2676426-1.17239551e-13 79.2676426 7.05379569C79.2676426 10.0408622 77.6914071 12.2181818 73.9582175 12.2181818 70.2250279 12.2181818 68.6322004 10.0408622 68.6322004 7.07179007L68.6322004 7.07179007 68.6322004-1.17239551e-13 72.0335509-1.17239551e-13zM94.9079989-1.17239551e-13C96.7325328-1.17239551e-13 98.3729394.549729516 99.6450914 1.64918855L99.6450914 1.64918855 97.8372964 4.1850376C96.8664435 3.40477636 95.6110303 3.01464573 94.7238716 3.01464573 93.8869295 3.01464573 93.7028022 3.33384351 93.7028022 3.63530809 93.7028022 4.09637155 94.154751 4.25597044 95.3432088 4.46876897 97.1844815 4.80569996 99.9129129 5.37316269 99.9129129 8.10407706 99.9129129 10.710859 98.088379 12.2181818 95.0921262 12.2181818 92.7152105 12.2181818 91.0915427 11.473387 89.9030849 10.3384615L89.9030849 10.3384615 91.6606634 7.67848001C92.4976055 8.5296741 93.7530188 9.20353609 95.2595146 9.20353609 95.8955906 9.20353609 96.498189 8.97300435 96.498189 8.51194089 96.498189 8.05087742 96.0295014 7.82034569 94.9247378 7.60754717 93.083465 7.25288297 90.2713394 6.7918195 90.2713394 3.8303734 90.2713394 1.82652065 91.8447907-1.17239551e-13 94.9079989-1.17239551e-13zM85.1030424-1.17239551e-13L85.1030424 8.52081519 89.2774707 8.52081519 89.2774707 11.5751196 81.7700996 11.5751196 81.7700996-1.17239551e-13 85.1030424-1.17239551e-13zM61.1248294 3.15193676C59.4622381 3.15193676 58.3824107 4.46229249 58.3824107 6.10909091 58.3824107 7.75588933 59.4622381 9.06624506 61.1248294 9.06624506 62.7874207 9.06624506 63.867248 7.75588933 63.867248 6.10909091 63.867248 4.46229249 62.7874207 3.15193676 61.1248294 3.15193676zM3.37389191-9.9475983e-14L3.37389191 4.57952842 6.29681807-9.9475983e-14 10.4223196-9.9475983e-14 6.21330589 5.67861524 10.6060463 12.2181818 6.49724729 12.2181818 3.99188201 7.91342511 3.37389191 8.82933079 3.37389191 12.2181818-2.84217094e-14 12.2181818-2.84217094e-14-9.9475983e-14 3.37389191-9.9475983e-14zM14.6218807-9.9475983e-14L14.6218807 6.94582943C14.6218807 8.09746954 15.1679018 9.01518276 16.5412276 9.01518276 17.8980074 9.01518276 18.4440285 8.09746954 18.4440285 6.94582943L18.4440285 6.94582943 18.4440285-9.9475983e-14 21.8359778-9.9475983e-14 21.8359778 7.05379569C21.8359778 10.0408622 20.2640988 12.2181818 16.5412276 12.2181818 12.8183565 12.2181818 11.2299314 10.0408622 11.2299314 7.07179007L11.2299314 7.07179007 11.2299314-9.9475983e-14 14.6218807-9.9475983e-14zM28.3229647-9.9475983e-14L30.2584263 6.22815865 32.193888-9.9475983e-14 36.8092197-9.9475983e-14 36.8092197 12.2181818 33.4676534 12.2181818 33.4676534 4.50625596 31.0028347 12.2181818 29.514018 12.2181818 27.0491993 4.50625596 27.0491993 12.2181818 23.707633 12.2181818 23.707633-9.9475983e-14 28.3229647-9.9475983e-14zM41.8003003-9.9475983e-14L41.8003003 12.2181818 38.6808749 12.2181818 38.6808749-9.9475983e-14 41.8003003-9.9475983e-14zM7.09683587 27.4909091C9.26612317 27.4909091 10.9220677 26.5524111 12.1474666 25.1003953L12.1474666 20.3547826 6.76564696 20.3547826 6.76564696 23.2942292 8.90181538 23.2942292 8.90181538 23.807747C8.47126981 24.1441897 7.808892 24.3389723 7.09683587 24.3389723 5.49056969 24.3389723 4.41420576 23.0286166 4.41420576 21.3818182 4.41420576 19.7350198 5.49056969 18.424664 7.09683587 18.424664 8.04072423 18.424664 8.76933982 18.9913043 9.13364761 19.7173123L11.9487533 18.1767589C11.1870188 16.653913 9.66354985 15.2727273 7.09683587 15.2727273 3.75182796 15.2727273 1.01951952 17.5924111 1.01951952 21.3818182 1.01951952 25.1535178 3.75182796 27.4909091 7.09683587 27.4909091zM15.7772259 26.8478469L16.2081563 25.3554027 20.4511626 25.3554027 20.8820929 26.8478469 24.5118523 26.8478469 20.4345884 15.2727273 16.2247305 15.2727273 12.1474666 26.8478469 15.7772259 26.8478469zM19.566098 22.3464115L17.0932209 22.3464115 18.3296594 18.4880383 19.566098 22.3464115zM28.4412915 26.8478469L28.4412915 19.5418119 30.883726 26.8478469 32.359022 26.8478469 34.8014566 19.5418119 34.8014566 26.8478469 38.1126765 26.8478469 38.1126765 15.2727273 33.5392589 15.2727273 31.621374 21.1730881 29.7034892 15.2727273 25.1300716 15.2727273 25.1300716 26.8478469 28.4412915 26.8478469zM48.6224043 26.8478469L48.6224043 23.9323745 43.4225204 23.9323745 43.4225204 22.4572843 48.5026701 22.4572843 48.5026701 19.5418119 43.4225204 19.5418119 43.4225204 18.1881997 48.6224043 18.1881997 48.6224043 15.2727273 39.9673344 15.2727273 39.9673344 26.8478469 48.6224043 26.8478469zM54.3683287 27.4909091C57.3291649 27.4909091 59.1321321 25.9835862 59.1321321 23.3768043 59.1321321 20.64589 56.4359517 20.0784272 54.6164435 19.7414962 53.4420336 19.5286977 52.995427 19.3690988 52.995427 18.9080354 52.995427 18.6065708 53.1773778 18.287373 54.004427 18.287373 54.8810992 18.287373 56.121673 18.6775036 57.0810501 19.4577649L58.8674764 16.9219158C57.6103616 15.8224568 55.9893451 15.2727273 54.1863779 15.2727273 51.1593778 15.2727273 49.6045253 17.0992479 49.6045253 19.1031007 49.6045253 22.0645468 52.3834106 22.5256102 54.2029189 22.8802744 55.2946238 23.093073 55.7577714 23.3236047 55.7577714 23.7846682 55.7577714 24.2457316 55.1622959 24.4762634 54.5337385 24.4762634 53.04505 24.4762634 51.8044761 23.8024014 50.9774269 22.9512073L49.2406236 25.6111888C50.4150335 26.7461143 52.0195089 27.4909091 54.3683287 27.4909091z" transform="translate(51 21)"/>
  </g>
</svg>
