<svg xmlns="http://www.w3.org/2000/svg" width="100" height="149" viewBox="0 0 100 149">
  <path fill="#B4BAC4" d="M388.490175,57.5555556 L390.915893,66.9849537 L396.128681,65.2529658 L399.875954,78.324557 L404.013214,92.9850627 L397.996808,101.288164 L392.923156,103.926131 L400.868359,111.166187 L394.057696,118.611055 L402.452145,116.465824 L411.361874,118.865856 L403.389385,123.376014 L414.84545,121.472985 L428.165427,132.713624 L441.48496,121.472985 L452.940712,123.3758 L444.968536,118.865856 L453.878265,116.465824 L462.2724,118.611055 L455.462051,111.166187 L463.40694,103.926131 L458.333602,101.288164 L452.317199,92.985067 L460.069793,65.2529658 L465.427863,88.891438 L469.72193,83.7556989 L471.306589,78.3406612 L472.337711,63.9525428 L476,90.2350883 L471.653314,103.004454 L471.653318,120.593842 L456.991351,134.065792 L453.179999,141.390622 L455.68549,130.403504 L432.915357,141.638932 L411.642095,148 L418.343904,141.558512 L405.558713,137.758001 L398.003221,130.227651 L386.059877,124.046678 L377.849446,114.360566 L376,89.1679411 L382.201989,106.33924 L384.325544,109.479538 L382.380072,102.046514 L386.038531,94.5260142 L383.301003,82.7018993 L386.052324,69.2202107 L388.490175,57.5555556 Z M418.954845,103.811277 C422.811018,105.766302 425.029857,109.827979 425.667991,115.887121 L426,119.222222 L415.43149,111.412503 L405.166667,108.210028 L406.75683,106.662143 C410.745968,102.779065 414.9184,101.764857 418.954845,103.811277 Z M451.257941,106.436563 L451.378745,106.551493 L451.49317,106.662045 L453.083333,108.209942 L442.818308,111.412442 L432.25,119.222222 L432.563155,116.071318 C433.175485,109.910176 435.400031,105.785945 439.295155,103.811157 C443.251429,101.805367 447.340573,102.739966 451.257941,106.436563 Z M457.25,0 L447.231714,13.8236116 L448.818951,32.0942486 L442.703651,42.5766499 L444.778305,56.8707858 L451.314271,44.4833685 L451.314271,48.0424494 L450.011747,56.5651971 L453.680776,66.1168171 L452.936396,73.6558186 L446.387447,82.2222222 L439.847777,74.9663843 L435.9624,67.2716049 L439.554794,54.3448639 L433.136534,66.6063874 L424.544898,71.9588854 L422.140753,65.1690852 L418.447616,74.9663843 L411.907946,82.2222222 L406.841935,75.8750225 L399.595489,66.1168171 L398.916667,64.4789356 L414.95375,54.147016 L426.329805,37.1217941 L438.587713,31.3144741 L441.733206,13.0763927 L457.25,0 Z" transform="translate(-376 .627)"/>
</svg>
