<svg xmlns="http://www.w3.org/2000/svg" width="24" height="24" viewBox="0 0 24 24">
  <path fill="#FFF" d="M20.5222222,1.8941132 C19.787351,2.2153848 18.9961318,2.4326472 18.1661735,2.529722 C19.0137406,2.0304804 19.6640897,1.2388588 19.9704818,0.2958468 C19.1769151,0.7581076 18.3000001,1.0944024 17.3632156,1.274684 C16.6166051,0.4899964 15.5495156,0 14.3685568,0 C12.1040735,0 10.2668956,1.8085952 10.2668956,4.0390032 C10.2668956,4.355652 10.3021131,4.6630552 10.3725481,4.958902 C6.96232306,4.7901768 3.93949056,3.1838208 1.91448597,0.737306 C1.56113764,1.3359336 1.35922389,2.0304804 1.35922389,2.7700976 C1.35922389,4.1707476 2.08353014,5.4072952 3.18466264,6.1318888 C2.51318306,6.1122428 1.87926847,5.928494 1.32518056,5.6280244 L1.32518056,5.6777176 C1.32518056,7.635392 2.73974889,9.268328 4.61801389,9.6381364 C4.27405639,9.7329 3.91131639,9.7802816 3.53683764,9.7802816 C3.27270639,9.7802816 3.01444514,9.7560132 2.76440097,9.7086312 C3.28679347,11.312676 4.80114472,12.48104 6.59723556,12.5122428 C5.19323222,13.596244 3.42296764,14.2422536 1.50126764,14.2422536 C1.17022347,14.2422536 0.842700972,14.2237632 0.522222222,14.1867824 C2.33826972,15.3308776 4.49592639,16 6.81206181,16 C14.3603393,16 18.4866526,9.846154 18.4866526,4.508198 C18.4866526,4.3325388 18.483131,4.1568796 18.4760872,3.9846876 C19.2778718,3.4149512 19.9740035,2.7042252 20.5222222,1.8941132" transform="translate(1.478 4)"/>
</svg>
