<?xml version="1.0" encoding="utf-8"?>
<svg
    xmlns="http://www.w3.org/2000/svg"
    width="137.01"
    height="137.01"
    viewbox="0 0 137.01 137.01">
    <defs><style>.icon-svg{fill:hsl(210 30% 96%);}</style></defs>
    <path class="icon-svg"
    d="M68.5,0A68.51,68.51,0,1,0,137,68.5,68.58,68.58,0,0,0,68.5,0Zm-11,115.24c-.16,1.2-1.65,3.52-6.07,3.69H51c-4.19,0-5.61-2.4-5.77-3.71v-.14L46.91,76c0-.31,0-.33-.4-.73a3.23,3.23,0,0,0-.77-.43,4.39,4.39,0,0,1-2.53-2.3,18.92,18.92,0,0,1-.83-5.06c0-.19-.77-6.6.6-24.52.63-8.64,3.33-16.84,4.3-18.65l.2-.38c.88-1.67,2.2-4.19,5-5.2a4,4,0,0,1,3.16.19,2.55,2.55,0,0,1,1.51,2.23l.31,50.84a2.87,2.87,0,0,1-.85,2l-.8.82a.82.82,0,0,0-.25.62l1.9,39.79Zm36.94-67c-.89,2.25-3,3.06-4.63,3.71-1.86.73-2.68,1.11-2.63,2.64.12,4.24,3,59.15,3,59.7-.09,1.66-1.49,4.61-6.17,4.61s-6.08-3-6.17-4.51c0-.65,2.9-55.56,3-59.8,0-1.53-.78-1.91-2.63-2.64-1.67-.65-3.75-1.46-4.64-3.71C72,44.28,75.09,21.61,75.45,19a1.33,1.33,0,0,1,1.49-1l3,0V38.7a1.37,1.37,0,0,0,2.68,0l.26-20.63H85.1V38.73a1.26,1.26,0,0,0,1.35,1.07h0a1.23,1.23,0,0,0,1.32-1.12V18.09l3.25,0a1.32,1.32,0,0,1,1.49,1C92.89,21.61,96,44.28,94.4,48.28Z"
/>
</svg>