<?xml version="1.0" encoding="utf-8"?>
<svg
    xmlns="http://www.w3.org/2000/svg"
    width="137.01"
    height="137.01"
    viewbox="0 0 137.01 137.01">
    <defs><style>.icon-svg{fill:hsl(210 30% 96%);}</style></defs>
    <path class="icon-svg"
    d="M68.5,0A68.51,68.51,0,1,0,137,68.5,68.58,68.58,0,0,0,68.5,0Zm38.79,103.66a38.2,38.2,0,0,1-9.88,9c-.92.58-1.87,1.11-2.82,1.63a5.86,5.86,0,0,1-3,.75,6.14,6.14,0,0,1-2.91-.71A99.17,99.17,0,0,1,37,46.11a104.14,104.14,0,0,1-1.56-10.39,6.69,6.69,0,0,1,2.75-6.25,39,39,0,0,1,14.26-7.33A6.32,6.32,0,0,1,60,26c2.22,5.92,4.44,11.83,6.61,17.77A6.14,6.14,0,0,1,65.56,50q-2.41,3.06-4.84,6.1a.59.59,0,0,0-.11.7,79.92,79.92,0,0,0,14,22.34c1.18,1.33,2.43,2.58,3.64,3.87a.59.59,0,0,0,.69.19Q82.73,82.05,86.5,81a6.22,6.22,0,0,1,6.27,1.46l13.85,12.68A6.36,6.36,0,0,1,107.29,103.66Z"
    />
</svg>